<svg xmlns="http://www.w3.org/2000/svg" xmlns:xlink="http://www.w3.org/1999/xlink" width="1080" zoomAndPan="magnify" viewBox="0 0 810 809.999993" height="1080" preserveAspectRatio="xMidYMid meet" version="1.0"><defs><g/><clipPath id="ad25616896"><path d="M 178.4375 239 L 563 239 L 563 631 L 178.4375 631 Z M 178.4375 239 " clip-rule="nonzero"/></clipPath></defs><path fill="#ffffff" d="M 444.078125 173.941406 C 462.238281 168.519531 474.601562 152.765625 476.367188 133.984375 C 479.269531 152.007812 491.25 167.132812 509.035156 172.050781 C 490.746094 175.453125 479.519531 191.207031 475.359375 208.351562 C 471.953125 192.089844 461.105469 177.722656 444.078125 173.941406 Z M 444.078125 173.941406 " fill-opacity="1" fill-rule="nonzero"/><path fill="#ffffff" d="M 340.140625 129.449219 C 359.691406 123.648438 372.9375 106.632812 374.953125 86.464844 C 378.109375 105.878906 390.972656 122.136719 410.144531 127.429688 C 390.46875 131.085938 378.359375 148.101562 373.945312 166.503906 C 370.160156 148.859375 358.429688 133.480469 340.140625 129.449219 Z M 340.140625 129.449219 " fill-opacity="1" fill-rule="nonzero"/><path fill="#ffffff" d="M 467.539062 32.898438 C 482.421875 28.484375 492.636719 15.378906 494.152344 0 C 496.546875 14.875 506.386719 27.351562 521.144531 31.386719 C 506.007812 34.15625 496.800781 47.140625 493.519531 61.257812 C 490.492188 47.769531 481.414062 35.921875 467.539062 32.898438 Z M 467.539062 32.898438 " fill-opacity="1" fill-rule="nonzero"/><path fill="#ffffff" d="M 662.414062 303.386719 C 641.351562 276.917969 605.402344 271.246094 573.492188 273.894531 C 573.492188 284.609375 573.492188 295.449219 573.492188 306.160156 C 579.417969 306.160156 585.472656 306.035156 591.527344 306.160156 C 602.753906 306.414062 613.855469 307.925781 623.1875 314.730469 C 648.414062 330.109375 654.34375 368.300781 634.160156 390.105469 C 623.566406 403.972656 607.042969 407.753906 590.519531 408.886719 C 584.84375 409.265625 579.039062 409.265625 573.617188 409.265625 L 573.238281 409.265625 C 573.363281 419.726562 573.492188 430.316406 573.617188 440.777344 C 599.726562 442.164062 628.484375 441.28125 649.421875 423.382812 C 687.011719 396.660156 692.8125 337.671875 662.414062 303.386719 Z M 662.414062 303.386719 " fill-opacity="1" fill-rule="nonzero"/><g clip-path="url(#ad25616896)"><path fill="#ffffff" d="M 561.632812 247.929688 C 562.136719 238.222656 549.148438 241.121094 543.34375 239.988281 C 422.632812 240.238281 301.921875 239.734375 181.210938 240.238281 C 179.699219 248.683594 178.6875 257.257812 178.5625 265.828125 C 179.066406 344.351562 178.6875 422.878906 178.816406 501.53125 C 179.320312 555.601562 217.539062 606.523438 269 622.910156 C 299.527344 633.371094 332.320312 628.835938 363.855469 629.84375 C 399.675781 629.339844 437.140625 633.75 471.070312 619.507812 C 525.308594 598.457031 563.398438 542.242188 562.011719 484.007812 C 562.011719 405.359375 562.894531 326.582031 561.632812 247.929688 Z M 291.707031 502.664062 L 225.484375 436.492188 L 291.707031 370.316406 L 307.21875 385.820312 L 256.515625 436.492188 L 307.21875 487.160156 Z M 408.128906 378.132812 L 354.648438 502.160156 C 351.871094 508.714844 344.304688 511.738281 337.746094 508.839844 C 331.1875 506.066406 328.160156 498.503906 331.058594 491.949219 L 384.539062 367.921875 C 387.316406 361.367188 394.882812 358.34375 401.441406 361.242188 C 407.875 364.140625 410.902344 371.703125 408.128906 378.132812 Z M 449.121094 502.664062 L 433.605469 487.160156 L 484.3125 436.492188 L 433.605469 385.820312 L 449.121094 370.316406 L 515.34375 436.492188 Z M 449.121094 502.664062 " fill-opacity="1" fill-rule="nonzero"/></g><g fill="#ffffff" fill-opacity="1"><g transform="translate(193.43201, 748.23819)"><g><path d="M 28.046875 -72.71875 C 26.503906 -72.71875 24.265625 -72.539062 21.328125 -72.1875 C 21.679688 -66.03125 21.859375 -57.789062 21.859375 -47.46875 C 23.960938 -47.3125 25.789062 -47.234375 27.34375 -47.234375 C 39.53125 -47.234375 45.625 -51.421875 45.625 -59.796875 C 45.625 -68.410156 39.765625 -72.71875 28.046875 -72.71875 Z M 32.9375 -8.15625 C 37.34375 -8.15625 41.046875 -9.515625 44.046875 -12.234375 C 47.046875 -14.953125 48.546875 -18.675781 48.546875 -23.40625 C 48.546875 -28.6875 46.894531 -32.71875 43.59375 -35.5 C 40.300781 -38.28125 36.210938 -39.671875 31.328125 -39.671875 C 26.960938 -39.671875 23.765625 -39.453125 21.734375 -39.015625 C 21.734375 -35.515625 21.546875 -30.71875 21.171875 -24.625 C 20.796875 -18.53125 20.445312 -14.507812 20.125 -12.5625 C 21.4375 -11.332031 23.332031 -10.289062 25.8125 -9.4375 C 28.300781 -8.582031 30.675781 -8.15625 32.9375 -8.15625 Z M 7.203125 -6.5 C 8.515625 -15.75 9.171875 -29.328125 9.171875 -47.234375 C 9.171875 -62.359375 8.632812 -73.492188 7.5625 -80.640625 C 13.832031 -81.597656 20.625 -82.078125 27.9375 -82.078125 C 37.1875 -82.078125 44.757812 -80.445312 50.65625 -77.1875 C 56.550781 -73.9375 59.5 -68.578125 59.5 -61.109375 C 59.5 -52.972656 55.96875 -47.316406 48.90625 -44.140625 C 57.957031 -40.328125 62.484375 -33.375 62.484375 -23.28125 C 62.484375 -15.582031 59.851562 -9.578125 54.59375 -5.265625 C 49.332031 -0.960938 42.925781 1.1875 35.375 1.1875 C 23.101562 1.1875 13.710938 -1.375 7.203125 -6.5 Z M 7.203125 -6.5 "/></g></g></g><g fill="#ffffff" fill-opacity="1"><g transform="translate(260.490997, 748.23819)"><g><path d="M 42.828125 -37.109375 C 42.828125 -41.554688 41.929688 -44.878906 40.140625 -47.078125 C 38.359375 -49.285156 36.035156 -50.390625 33.171875 -50.390625 C 28.691406 -50.390625 24.226562 -48.222656 19.78125 -43.890625 C 19.851562 -40.921875 19.910156 -34.367188 19.953125 -24.234375 C 19.992188 -14.109375 20.253906 -6.109375 20.734375 -0.234375 C 18.546875 0.078125 16.519531 0.234375 14.65625 0.234375 C 9.375 0.234375 6.734375 -1.390625 6.734375 -4.640625 C 6.734375 -5.117188 6.789062 -7.066406 6.90625 -10.484375 C 7.03125 -13.898438 7.128906 -19.117188 7.203125 -26.140625 C 7.285156 -33.171875 7.328125 -41.296875 7.328125 -50.515625 C 7.328125 -69.691406 6.945312 -82.851562 6.1875 -90 C 8.5 -90.4375 10.625 -90.65625 12.5625 -90.65625 C 18.320312 -90.65625 21.203125 -88.410156 21.203125 -83.921875 C 21.203125 -83.609375 21.101562 -82.191406 20.90625 -79.671875 C 20.707031 -77.148438 20.488281 -73.460938 20.25 -68.609375 C 20.007812 -63.765625 19.890625 -58.46875 19.890625 -52.71875 C 25.492188 -57 31.789062 -59.140625 38.78125 -59.140625 C 43.738281 -59.140625 47.765625 -57.679688 50.859375 -54.765625 C 53.960938 -51.847656 55.515625 -47.132812 55.515625 -40.625 C 55.515625 -40.144531 55.492188 -38.921875 55.453125 -36.953125 C 55.410156 -34.992188 55.347656 -32.414062 55.265625 -29.21875 C 55.191406 -26.019531 55.15625 -22.671875 55.15625 -19.171875 C 55.15625 -12.503906 56.207031 -6.472656 58.3125 -1.078125 C 55.769531 -0.046875 53.488281 0.46875 51.46875 0.46875 C 48.125 0.46875 45.765625 -0.210938 44.390625 -1.578125 C 43.023438 -2.953125 42.34375 -5.5625 42.34375 -9.40625 C 42.34375 -12.507812 42.421875 -17.769531 42.578125 -25.1875 C 42.742188 -32.613281 42.828125 -36.585938 42.828125 -37.109375 Z M 42.828125 -37.109375 "/></g></g></g><g fill="#ffffff" fill-opacity="1"><g transform="translate(324.989117, 748.23819)"><g><path d="M 36.984375 -17.453125 C 36.984375 -21.179688 37.066406 -24.0625 37.234375 -26.09375 C 34.765625 -25.769531 32.984375 -25.53125 31.890625 -25.375 C 30.804688 -25.21875 29.328125 -24.976562 27.453125 -24.65625 C 25.585938 -24.34375 24.226562 -23.976562 23.375 -23.5625 C 22.519531 -23.144531 21.601562 -22.644531 20.625 -22.0625 C 19.65625 -21.488281 18.960938 -20.773438 18.546875 -19.921875 C 18.128906 -19.066406 17.921875 -18.082031 17.921875 -16.96875 C 17.921875 -13.71875 18.734375 -11.316406 20.359375 -9.765625 C 21.992188 -8.222656 24.0625 -7.453125 26.5625 -7.453125 C 30.726562 -7.453125 34.285156 -9 37.234375 -12.09375 C 37.066406 -13.125 36.984375 -14.910156 36.984375 -17.453125 Z M 37.46875 -33.53125 C 37.46875 -36.3125 37.40625 -38.4375 37.28125 -39.90625 C 37.164062 -41.375 36.835938 -43.039062 36.296875 -44.90625 C 35.765625 -46.769531 34.863281 -48.128906 33.59375 -48.984375 C 32.320312 -49.835938 30.632812 -50.265625 28.53125 -50.265625 C 25.875 -50.265625 23.34375 -49.390625 20.9375 -47.640625 C 18.53125 -45.898438 16.789062 -43.484375 15.71875 -40.390625 C 8.5 -40.460938 4.890625 -42.601562 4.890625 -46.8125 C 4.890625 -50.3125 7.347656 -53.238281 12.265625 -55.59375 C 17.191406 -57.957031 22.769531 -59.140625 29 -59.140625 C 36.507812 -59.140625 41.988281 -57.597656 45.4375 -54.515625 C 48.894531 -51.441406 50.625 -45.914062 50.625 -37.9375 C 50.625 -37.695312 50.582031 -35.789062 50.5 -32.21875 C 50.425781 -28.644531 50.390625 -25.148438 50.390625 -21.734375 C 50.390625 -12.441406 51.164062 -5.472656 52.71875 -0.828125 C 50.332031 0.0351562 48.007812 0.46875 45.75 0.46875 C 41.175781 0.46875 38.453125 -1.394531 37.578125 -5.125 C 32.703125 -0.914062 27.203125 1.1875 21.078125 1.1875 C 16.398438 1.1875 12.488281 -0.269531 9.34375 -3.1875 C 6.207031 -6.101562 4.640625 -10.398438 4.640625 -16.078125 C 4.640625 -20.648438 5.613281 -24.035156 7.5625 -26.234375 C 9.507812 -28.441406 12.109375 -30.0625 15.359375 -31.09375 C 20.242188 -32.644531 27.613281 -33.457031 37.46875 -33.53125 Z M 37.46875 -33.53125 "/></g></g></g><g fill="#ffffff" fill-opacity="1"><g transform="translate(383.293512, 748.23819)"><g><path d="M 45.984375 -59.140625 C 50.546875 -59.140625 52.828125 -57.515625 52.828125 -54.265625 C 52.828125 -48.742188 50.769531 -40.375 46.65625 -29.15625 C 42.550781 -17.9375 38.414062 -9.726562 34.25 -4.53125 C 31.664062 -1.269531 28.664062 0.359375 25.25 0.359375 C 22.789062 0.359375 20.882812 0.195312 19.53125 -0.125 C 17.664062 -9.65625 14.617188 -20.375 10.390625 -32.28125 C 6.160156 -44.195312 2.578125 -51.601562 -0.359375 -54.5 C 3.210938 -57.28125 6.429688 -58.671875 9.296875 -58.671875 C 12.035156 -58.671875 14.097656 -57.25 15.484375 -54.40625 C 16.878906 -51.570312 19.070312 -45.828125 22.0625 -37.171875 C 25.0625 -28.515625 27.554688 -20.75 29.546875 -13.875 C 32.046875 -17.96875 34.492188 -24.242188 36.890625 -32.703125 C 39.296875 -41.160156 40.5 -48.382812 40.5 -54.375 C 40.5 -55.84375 40.378906 -57.195312 40.140625 -58.4375 C 41.929688 -58.90625 43.878906 -59.140625 45.984375 -59.140625 Z M 45.984375 -59.140625 "/></g></g></g><g fill="#ffffff" fill-opacity="1"><g transform="translate(439.63259, 748.23819)"><g><path d="M 27.21875 -24 C 25 -24 22.019531 -24.097656 18.28125 -24.296875 C 19.113281 -18.503906 20.96875 -14.265625 23.84375 -11.578125 C 26.726562 -8.898438 30.296875 -7.5625 34.546875 -7.5625 C 36.734375 -7.5625 39.003906 -8.125 41.359375 -9.25 C 43.722656 -10.382812 45.460938 -12.023438 46.578125 -14.171875 C 50.585938 -12.023438 52.59375 -9.742188 52.59375 -7.328125 C 52.59375 -4.546875 50.675781 -2.429688 46.84375 -0.984375 C 43.007812 0.460938 38.734375 1.1875 34.015625 1.1875 C 26.390625 1.1875 19.585938 -1.320312 13.609375 -6.34375 C 7.628906 -11.363281 4.640625 -18.640625 4.640625 -28.171875 C 4.640625 -38.179688 7.507812 -45.84375 13.25 -51.15625 C 18.988281 -56.476562 25.75 -59.140625 33.53125 -59.140625 C 39.800781 -59.140625 44.863281 -57.429688 48.71875 -54.015625 C 52.570312 -50.609375 54.5 -46.539062 54.5 -41.8125 C 54.5 -38 53.789062 -34.851562 52.375 -32.375 C 50.96875 -29.894531 48.882812 -28.085938 46.125 -26.953125 C 43.363281 -25.816406 40.554688 -25.039062 37.703125 -24.625 C 34.847656 -24.207031 31.351562 -24 27.21875 -24 Z M 32.46875 -50.265625 C 28.65625 -50.265625 25.394531 -48.796875 22.6875 -45.859375 C 19.988281 -42.921875 18.398438 -38.296875 17.921875 -31.984375 C 23.128906 -31.984375 26.960938 -32.101562 29.421875 -32.34375 C 37.285156 -33.289062 41.21875 -36.367188 41.21875 -41.578125 C 41.21875 -43.960938 40.382812 -46.003906 38.71875 -47.703125 C 37.050781 -49.410156 34.96875 -50.265625 32.46875 -50.265625 Z M 32.46875 -50.265625 "/></g></g></g><g fill="#ffffff" fill-opacity="1"><g transform="translate(498.770755, 748.23819)"><g><path d="M 38.890625 -41.578125 C 37.265625 -46.859375 32.757812 -49.5 25.375 -49.5 C 23.269531 -49.5 21.441406 -48.910156 19.890625 -47.734375 C 18.347656 -46.566406 17.578125 -44.96875 17.578125 -42.9375 C 17.578125 -40.476562 18.644531 -38.5625 20.78125 -37.1875 C 22.925781 -35.820312 25.546875 -34.8125 28.640625 -34.15625 C 31.742188 -33.5 34.84375 -32.722656 37.9375 -31.828125 C 41.039062 -30.941406 43.660156 -29.273438 45.796875 -26.828125 C 47.941406 -24.390625 49.015625 -21.144531 49.015625 -17.09375 C 49.015625 -11.132812 46.679688 -6.597656 42.015625 -3.484375 C 37.347656 -0.367188 31.84375 1.1875 25.5 1.1875 C 19.894531 1.1875 14.9375 0.253906 10.625 -1.609375 C 6.320312 -3.472656 4.171875 -5.773438 4.171875 -8.515625 C 4.171875 -12.015625 6.691406 -14.832031 11.734375 -16.96875 C 14.148438 -11.25 19.429688 -8.390625 27.578125 -8.390625 C 33.734375 -8.390625 36.8125 -10.476562 36.8125 -14.65625 C 36.8125 -17.070312 35.738281 -18.914062 33.59375 -20.1875 C 31.445312 -21.457031 28.820312 -22.390625 25.71875 -22.984375 C 22.625 -23.585938 19.539062 -24.382812 16.46875 -25.375 C 13.394531 -26.363281 10.773438 -28.160156 8.609375 -30.765625 C 6.441406 -33.367188 5.359375 -36.851562 5.359375 -41.21875 C 5.359375 -47.09375 7.703125 -51.546875 12.390625 -54.578125 C 17.078125 -57.617188 22.578125 -59.140625 28.890625 -59.140625 C 31.347656 -59.140625 33.894531 -58.878906 36.53125 -58.359375 C 39.175781 -57.847656 41.738281 -56.757812 44.21875 -55.09375 C 46.707031 -53.425781 47.953125 -51.320312 47.953125 -48.78125 C 47.953125 -47.15625 47.132812 -45.71875 45.5 -44.46875 C 43.875 -43.21875 41.671875 -42.253906 38.890625 -41.578125 Z M 38.890625 -41.578125 "/></g></g></g><g fill="#ffffff" fill-opacity="1"><g transform="translate(552.072525, 748.23819)"><g><path d="M 42.828125 -37.109375 C 42.828125 -41.554688 41.929688 -44.878906 40.140625 -47.078125 C 38.359375 -49.285156 36.035156 -50.390625 33.171875 -50.390625 C 28.691406 -50.390625 24.226562 -48.222656 19.78125 -43.890625 C 19.851562 -40.921875 19.910156 -34.367188 19.953125 -24.234375 C 19.992188 -14.109375 20.253906 -6.109375 20.734375 -0.234375 C 18.546875 0.078125 16.519531 0.234375 14.65625 0.234375 C 9.375 0.234375 6.734375 -1.390625 6.734375 -4.640625 C 6.734375 -5.117188 6.789062 -7.066406 6.90625 -10.484375 C 7.03125 -13.898438 7.128906 -19.117188 7.203125 -26.140625 C 7.285156 -33.171875 7.328125 -41.296875 7.328125 -50.515625 C 7.328125 -69.691406 6.945312 -82.851562 6.1875 -90 C 8.5 -90.4375 10.625 -90.65625 12.5625 -90.65625 C 18.320312 -90.65625 21.203125 -88.410156 21.203125 -83.921875 C 21.203125 -83.609375 21.101562 -82.191406 20.90625 -79.671875 C 20.707031 -77.148438 20.488281 -73.460938 20.25 -68.609375 C 20.007812 -63.765625 19.890625 -58.46875 19.890625 -52.71875 C 25.492188 -57 31.789062 -59.140625 38.78125 -59.140625 C 43.738281 -59.140625 47.765625 -57.679688 50.859375 -54.765625 C 53.960938 -51.847656 55.515625 -47.132812 55.515625 -40.625 C 55.515625 -40.144531 55.492188 -38.921875 55.453125 -36.953125 C 55.410156 -34.992188 55.347656 -32.414062 55.265625 -29.21875 C 55.191406 -26.019531 55.15625 -22.671875 55.15625 -19.171875 C 55.15625 -12.503906 56.207031 -6.472656 58.3125 -1.078125 C 55.769531 -0.046875 53.488281 0.46875 51.46875 0.46875 C 48.125 0.46875 45.765625 -0.210938 44.390625 -1.578125 C 43.023438 -2.953125 42.34375 -5.5625 42.34375 -9.40625 C 42.34375 -12.507812 42.421875 -17.769531 42.578125 -25.1875 C 42.742188 -32.613281 42.828125 -36.585938 42.828125 -37.109375 Z M 42.828125 -37.109375 "/></g></g></g></svg>