<svg xmlns="http://www.w3.org/2000/svg" xmlns:xlink="http://www.w3.org/1999/xlink" width="1080" zoomAndPan="magnify" viewBox="0 0 810 1439.999935" height="1920" preserveAspectRatio="xMidYMid meet" version="1.0"><defs><filter x="0%" y="0%" width="100%" height="100%" id="b7ea113f95"><feColorMatrix values="0 0 0 0 1 0 0 0 0 1 0 0 0 0 1 0 0 0 1 0" color-interpolation-filters="sRGB"/></filter><g/><mask id="258db2d294"><g filter="url(#b7ea113f95)"><rect x="-81" width="972" fill="#000000" y="-143.999994" height="1727.999922" fill-opacity="0.498"/></g></mask><clipPath id="60c16633c9"><path d="M 0.640625 0.441406 L 25.359375 0.441406 L 25.359375 1042.039062 L 0.640625 1042.039062 Z M 0.640625 0.441406 " clip-rule="nonzero"/></clipPath><clipPath id="8cab8c4bd2"><rect x="0" width="26" y="0" height="1043"/></clipPath></defs><g fill="#ffffff" fill-opacity="1"><g transform="translate(372.995968, 253.832969)"><g><path d="M 26.28125 -11.59375 L 26.28125 -7.03125 L 2.84375 -17.578125 L 2.84375 -21.140625 L 26.28125 -31.6875 L 26.28125 -27.125 L 8.921875 -19.65625 L 8.921875 -19.09375 Z M 26.28125 -11.59375 "/></g></g></g><g fill="#ffffff" fill-opacity="1"><g transform="translate(402.822969, 253.832969)"><g><path d="M 26.9375 -17.578125 L 3.53125 -7.03125 L 3.53125 -11.59375 L 20.890625 -19.09375 L 20.890625 -19.65625 L 3.53125 -27.125 L 3.53125 -31.6875 L 26.9375 -21.140625 Z M 26.9375 -17.578125 "/></g></g></g><g mask="url(#258db2d294)"><g transform="matrix(1, 0, 0, 1, 326, 259)"><g clip-path="url(#8cab8c4bd2)"><g clip-path="url(#60c16633c9)"><path stroke-linecap="butt" transform="matrix(0.00636716, 0.750127, -0.749973, 0.00636585, 10.56744, 8.19065)" fill="none" stroke-linejoin="miter" d="M 0.00060921 2.501474 L 1367.721915 2.49823 " stroke="#ffffff" stroke-width="5" stroke-opacity="1" stroke-miterlimit="4"/></g></g></g></g><g fill="#ffffff" fill-opacity="1"><g transform="translate(377.319677, 1345.632783)"><g><path d="M 26.28125 -11.59375 L 26.28125 -7.03125 L 2.84375 -17.578125 L 2.84375 -21.140625 L 26.28125 -31.6875 L 26.28125 -27.125 L 8.921875 -19.65625 L 8.921875 -19.09375 Z M 26.28125 -11.59375 "/></g></g></g><g fill="#ffffff" fill-opacity="1"><g transform="translate(407.146679, 1345.632783)"><g><path d="M 4.984375 5.71875 L 0.6875 5.71875 L 15.59375 -42.28125 L 19.875 -42.28125 Z M 4.984375 5.71875 "/></g></g></g><g fill="#ffffff" fill-opacity="1"><g transform="translate(428.771941, 1345.632783)"><g><path d="M 26.9375 -17.578125 L 3.53125 -7.03125 L 3.53125 -11.59375 L 20.890625 -19.09375 L 20.890625 -19.65625 L 3.53125 -27.125 L 3.53125 -31.6875 L 26.9375 -21.140625 Z M 26.9375 -17.578125 "/></g></g></g></svg>