<svg xmlns="http://www.w3.org/2000/svg" xmlns:xlink="http://www.w3.org/1999/xlink" width="500" zoomAndPan="magnify" viewBox="0 0 375 374.999991" height="500" preserveAspectRatio="xMidYMid meet" version="1.0"><defs><g/><clipPath id="f96d325918"><path d="M 48.28125 43 L 95 43 L 95 187.695312 L 48.28125 187.695312 Z M 48.28125 43 " clip-rule="nonzero"/></clipPath><clipPath id="eaa99d21c9"><path d="M 280.535156 43.664062 L 326.527344 43.664062 L 326.527344 187.6875 L 280.535156 187.6875 Z M 280.535156 43.664062 " clip-rule="nonzero"/></clipPath><clipPath id="9f54056ba6"><path d="M 165 10.695312 L 210 10.695312 L 210 59 L 165 59 Z M 165 10.695312 " clip-rule="nonzero"/></clipPath></defs><path fill="#ff4d61" d="M 143.152344 91.40625 C 139.738281 91.40625 136.558594 92.050781 133.609375 93.34375 C 130.65625 94.636719 128.101562 96.378906 125.933594 98.574219 C 123.765625 100.765625 122.050781 103.34375 120.78125 106.296875 C 119.515625 109.253906 118.882812 112.394531 118.882812 115.71875 C 118.882812 119.042969 119.515625 122.183594 120.78125 125.136719 C 122.050781 128.09375 123.765625 130.667969 125.933594 132.859375 C 128.101562 135.054688 130.65625 136.800781 133.609375 138.089844 C 136.558594 139.382812 139.738281 140.03125 143.152344 140.03125 C 146.515625 140.03125 149.675781 139.382812 152.625 138.089844 C 155.574219 136.800781 158.144531 135.042969 160.335938 132.828125 C 162.523438 130.609375 164.253906 128.035156 165.519531 125.101562 C 166.789062 122.171875 167.421875 119.042969 167.421875 115.71875 C 167.421875 112.394531 166.789062 109.265625 165.519531 106.332031 C 164.253906 103.398438 162.523438 100.824219 160.335938 98.609375 C 158.144531 96.390625 155.574219 94.636719 152.625 93.34375 C 149.675781 92.050781 146.515625 91.40625 143.152344 91.40625 Z M 181.875 115.71875 C 181.875 126.523438 178.09375 135.667969 170.535156 143.148438 C 162.878906 150.722656 153.753906 154.507812 143.152344 154.507812 C 132.457031 154.507812 123.328125 150.722656 115.769531 143.148438 C 108.207031 135.574219 104.429688 126.429688 104.429688 115.71875 C 104.429688 105.003906 108.207031 95.863281 115.769531 88.285156 C 123.328125 80.714844 132.457031 76.925781 143.152344 76.925781 C 153.753906 76.925781 162.878906 80.714844 170.535156 88.285156 C 174.3125 92.074219 177.136719 96.253906 179.003906 100.824219 C 180.871094 105.398438 181.828125 110.359375 181.875 115.71875 " fill-opacity="1" fill-rule="nonzero"/><path fill="#ff4d61" d="M 231.660156 91.40625 C 228.246094 91.40625 225.066406 92.050781 222.117188 93.34375 C 219.164062 94.636719 216.605469 96.378906 214.441406 98.574219 C 212.273438 100.765625 210.558594 103.34375 209.289062 106.296875 C 208.019531 109.253906 207.390625 112.394531 207.390625 115.71875 C 207.390625 119.042969 208.019531 122.183594 209.289062 125.136719 C 210.558594 128.09375 212.273438 130.667969 214.441406 132.859375 C 216.605469 135.054688 219.164062 136.800781 222.117188 138.089844 C 225.066406 139.382812 228.246094 140.03125 231.660156 140.03125 C 235.023438 140.03125 238.179688 139.382812 241.132812 138.089844 C 244.082031 136.800781 246.652344 135.042969 248.84375 132.828125 C 251.03125 130.609375 252.761719 128.035156 254.027344 125.101562 C 255.292969 122.171875 255.929688 119.042969 255.929688 115.71875 C 255.929688 112.394531 255.292969 109.265625 254.027344 106.332031 C 252.761719 103.398438 251.03125 100.824219 248.84375 98.609375 C 246.652344 96.390625 244.082031 94.636719 241.132812 93.34375 C 238.179688 92.050781 235.023438 91.40625 231.660156 91.40625 Z M 270.382812 115.71875 C 270.382812 126.523438 266.601562 135.667969 259.039062 143.148438 C 251.386719 150.722656 242.261719 154.507812 231.660156 154.507812 C 220.964844 154.507812 211.835938 150.722656 204.277344 143.148438 C 196.714844 135.574219 192.9375 126.429688 192.9375 115.71875 C 192.9375 105.003906 196.714844 95.863281 204.277344 88.285156 C 211.835938 80.714844 220.964844 76.925781 231.660156 76.925781 C 242.261719 76.925781 251.386719 80.714844 259.039062 88.285156 C 262.820312 92.074219 265.644531 96.253906 267.511719 100.824219 C 269.378906 105.398438 270.332031 110.359375 270.382812 115.71875 " fill-opacity="1" fill-rule="nonzero"/><g clip-path="url(#f96d325918)"><path fill="#d9d9d9" d="M 87.003906 43.746094 C 89.078125 43.746094 90.796875 44.453125 92.15625 45.859375 C 93.515625 47.269531 94.195312 48.988281 94.195312 51.019531 C 94.195312 53.097656 93.515625 54.820312 92.15625 56.179688 C 90.796875 57.542969 89.078125 58.226562 87.003906 58.226562 C 81.289062 58.226562 78.429688 61.089844 78.429688 66.8125 L 78.429688 99.921875 C 78.429688 106.574219 76.910156 111.839844 73.867188 115.71875 C 76.910156 119.597656 78.429688 124.859375 78.429688 131.511719 L 78.429688 164.621094 C 78.429688 170.347656 81.289062 173.210938 87.003906 173.210938 C 89.078125 173.210938 90.796875 173.890625 92.15625 175.253906 C 93.515625 176.617188 94.195312 178.335938 94.195312 180.414062 C 94.195312 182.492188 93.515625 184.226562 92.15625 185.609375 C 90.796875 186.996094 89.078125 187.6875 87.003906 187.6875 C 71.65625 187.6875 63.980469 180 63.980469 164.621094 L 63.980469 131.511719 C 63.980469 125.785156 61.144531 122.921875 55.472656 122.921875 C 53.398438 122.921875 51.683594 122.238281 50.320312 120.878906 C 48.960938 119.515625 48.28125 117.796875 48.28125 115.71875 C 48.28125 113.640625 48.960938 111.917969 50.320312 110.558594 C 51.683594 109.195312 53.398438 108.511719 55.472656 108.511719 C 61.144531 108.511719 63.980469 105.648438 63.980469 99.921875 L 63.980469 66.8125 C 63.980469 51.4375 71.65625 43.746094 87.003906 43.746094 " fill-opacity="1" fill-rule="nonzero"/></g><g clip-path="url(#eaa99d21c9)"><path fill="#d9d9d9" d="M 310.832031 66.8125 L 310.832031 99.921875 C 310.832031 105.648438 313.667969 108.511719 319.335938 108.511719 C 321.410156 108.511719 323.128906 109.195312 324.488281 110.558594 C 325.847656 111.917969 326.527344 113.640625 326.527344 115.71875 C 326.527344 117.796875 325.847656 119.515625 324.488281 120.878906 C 323.128906 122.238281 321.410156 122.921875 319.335938 122.921875 C 313.667969 122.921875 310.832031 125.785156 310.832031 131.511719 L 310.832031 164.621094 C 310.832031 180 303.15625 187.6875 287.804688 187.6875 C 285.730469 187.6875 284.015625 186.996094 282.652344 185.609375 C 281.292969 184.226562 280.617188 182.492188 280.617188 180.414062 C 280.617188 178.335938 281.292969 176.617188 282.652344 175.253906 C 284.015625 173.890625 285.730469 173.210938 287.804688 173.210938 C 293.523438 173.210938 296.378906 170.347656 296.378906 164.621094 L 296.378906 131.511719 C 296.378906 124.859375 297.902344 119.597656 300.945312 115.71875 C 297.902344 111.839844 296.378906 106.574219 296.378906 99.921875 L 296.378906 66.8125 C 296.378906 61.089844 293.523438 58.226562 287.804688 58.226562 C 285.730469 58.226562 284.015625 57.542969 282.652344 56.179688 C 281.292969 54.820312 280.617188 53.097656 280.617188 51.019531 C 280.617188 48.988281 281.292969 47.269531 282.652344 45.859375 C 284.015625 44.453125 285.730469 43.746094 287.804688 43.746094 C 303.15625 43.746094 310.832031 51.4375 310.832031 66.8125 " fill-opacity="1" fill-rule="nonzero"/></g><g clip-path="url(#9f54056ba6)"><path fill="#d9d9d9" d="M 209.050781 49.492188 C 209.050781 50.691406 208.816406 51.8125 208.355469 52.851562 C 207.894531 53.890625 207.285156 54.800781 206.523438 55.585938 C 205.765625 56.371094 204.851562 56.984375 203.792969 57.421875 C 202.730469 57.863281 201.625 58.078125 200.472656 58.078125 C 198.351562 58.078125 196.53125 57.34375 195.011719 55.863281 C 193.488281 54.386719 192.246094 52.574219 191.277344 50.425781 C 190.308594 48.277344 189.605469 46.0625 189.167969 43.777344 C 188.730469 41.492188 188.511719 39.355469 188.511719 37.367188 C 188.511719 29.195312 191.992188 20.929688 198.953125 12.570312 C 200.195312 11.324219 201.601562 10.699219 203.171875 10.699219 C 204.78125 10.699219 206.167969 11.277344 207.320312 12.433594 C 208.46875 13.585938 209.050781 14.972656 209.050781 16.589844 C 209.050781 17.375 208.886719 18.179688 208.566406 19.011719 C 206.488281 24.09375 205.453125 28.917969 205.453125 33.492188 C 205.453125 37.832031 206.394531 42.035156 208.289062 46.097656 C 208.792969 47.25 209.050781 48.382812 209.050781 49.492188 Z M 186.300781 49.492188 C 186.300781 50.691406 186.066406 51.8125 185.609375 52.851562 C 185.144531 53.890625 184.535156 54.800781 183.773438 55.585938 C 183.015625 56.371094 182.105469 56.984375 181.042969 57.421875 C 179.984375 57.863281 178.878906 58.078125 177.726562 58.078125 C 175.601562 58.078125 173.785156 57.34375 172.261719 55.863281 C 170.742188 54.386719 169.496094 52.574219 168.527344 50.425781 C 167.558594 48.277344 166.855469 46.0625 166.417969 43.777344 C 165.980469 41.492188 165.761719 39.355469 165.761719 37.367188 C 165.761719 29.195312 169.242188 20.929688 176.203125 12.570312 C 177.449219 11.324219 178.855469 10.699219 180.421875 10.699219 C 182.035156 10.699219 183.417969 11.277344 184.570312 12.433594 C 185.722656 13.585938 186.300781 14.972656 186.300781 16.589844 C 186.300781 17.375 186.136719 18.179688 185.816406 19.011719 C 183.742188 24.09375 182.703125 28.917969 182.703125 33.492188 C 182.703125 37.832031 183.648438 42.035156 185.539062 46.097656 C 186.042969 47.25 186.300781 48.382812 186.300781 49.492188 " fill-opacity="1" fill-rule="nonzero"/></g><g fill="#ff4d61" fill-opacity="1"><g transform="translate(78.923267, 245.646927)"><g><path d="M 25.765625 -2.484375 C 24.523438 -1.492188 22.910156 -0.722656 20.921875 -0.171875 C 18.929688 0.367188 16.488281 0.640625 13.59375 0.640625 C 10.707031 0.640625 7.632812 0.375 4.375 -0.15625 L 4.375 -33.703125 C 7.664062 -34.222656 10.519531 -34.484375 12.9375 -34.484375 C 15.351562 -34.484375 17.335938 -34.253906 18.890625 -33.796875 C 20.453125 -33.335938 21.722656 -32.71875 22.703125 -31.9375 C 24.640625 -30.425781 25.609375 -28.46875 25.609375 -26.0625 C 25.609375 -23.664062 24.734375 -21.679688 22.984375 -20.109375 C 25.054688 -19.460938 26.660156 -18.238281 27.796875 -16.4375 C 28.828125 -14.832031 29.34375 -13.046875 29.34375 -11.078125 C 29.34375 -9.117188 29.054688 -7.441406 28.484375 -6.046875 C 27.921875 -4.660156 27.015625 -3.472656 25.765625 -2.484375 Z M 11.125 -21.046875 C 11.832031 -20.929688 12.71875 -20.875 13.78125 -20.875 C 14.851562 -20.875 15.734375 -21.007812 16.421875 -21.28125 C 17.109375 -21.5625 17.640625 -21.914062 18.015625 -22.34375 C 18.628906 -23.039062 18.9375 -24.007812 18.9375 -25.25 C 18.9375 -27.84375 17.410156 -29.140625 14.359375 -29.140625 C 13.066406 -29.140625 11.988281 -29.085938 11.125 -28.984375 Z M 14.890625 -15.609375 C 13.460938 -15.609375 12.207031 -15.515625 11.125 -15.328125 L 11.125 -5.3125 C 12.3125 -5.007812 13.554688 -4.859375 14.859375 -4.859375 C 16.171875 -4.859375 17.320312 -5.015625 18.3125 -5.328125 C 19.300781 -5.640625 20.132812 -6.070312 20.8125 -6.625 C 22.1875 -7.738281 22.875 -9.160156 22.875 -10.890625 C 22.875 -14.035156 20.210938 -15.609375 14.890625 -15.609375 Z M 14.890625 -15.609375 "/></g></g></g><g fill="#ff4d61" fill-opacity="1"><g transform="translate(109.382058, 245.646927)"><g><path d="M 11.25 0.15625 C 9.625 0.0507812 7.691406 0 5.453125 0 L 4.625 0 L 4.625 -33.984375 C 5.675781 -33.890625 6.425781 -33.84375 6.875 -33.84375 L 7.921875 -33.84375 C 9.253906 -33.84375 10.363281 -33.910156 11.25 -34.046875 L 11.25 -20.484375 L 23.21875 -20.484375 L 23.21875 -33.984375 C 24.625 -33.890625 25.992188 -33.84375 27.328125 -33.84375 C 28.660156 -33.84375 29.492188 -33.910156 29.828125 -34.046875 L 29.828125 0.15625 C 29.015625 0.0507812 27.40625 0 25 0 L 23.21875 0 L 23.21875 -14.375 L 11.25 -14.375 Z M 11.25 0.15625 "/></g></g></g><g fill="#ff4d61" fill-opacity="1"><g transform="translate(144.090315, 245.646927)"><g><path d="M 6.84375 0.203125 C 5.382812 0.0664062 3.679688 0 1.734375 0 L -0.28125 0 L 10.796875 -31.03125 C 11.285156 -32.414062 11.53125 -33.222656 11.53125 -33.453125 C 11.53125 -33.679688 11.519531 -33.820312 11.5 -33.875 L 11.53125 -33.921875 C 12.632812 -33.867188 13.804688 -33.84375 15.046875 -33.84375 C 16.054688 -33.84375 17.273438 -33.863281 18.703125 -33.90625 L 18.734375 -33.84375 C 18.703125 -33.78125 18.6875 -33.691406 18.6875 -33.578125 C 18.6875 -33.253906 18.9375 -32.394531 19.4375 -31 L 30.75 0.078125 C 30.40625 0.0546875 30.003906 0.046875 29.546875 0.046875 C 29.546875 0.046875 29.101562 0.03125 28.21875 0 C 27.800781 0 27.421875 0 27.078125 0 L 23.140625 0 L 20.75 -7.328125 L 9.234375 -7.328125 Z M 18.765625 -13.4375 L 14.921875 -25.28125 L 11.171875 -13.4375 Z M 18.765625 -13.4375 "/></g></g></g><g fill="#d9d9d9" fill-opacity="1"><g transform="translate(174.548264, 245.646927)"><g><path d="M 18.859375 0.109375 C 18.316406 0.0351562 17.425781 0 16.1875 0 L 13.390625 0 C 12.929688 0 12.515625 0.015625 12.140625 0.046875 L 12.109375 0 C 12.179688 -0.113281 12.21875 -0.25 12.21875 -0.40625 C 12.21875 -0.5625 12.203125 -0.722656 12.171875 -0.890625 C 12.148438 -1.054688 12.078125 -1.359375 11.953125 -1.796875 C 11.835938 -2.242188 11.65625 -2.882812 11.40625 -3.71875 L 10.328125 -7.125 L 0.859375 -33.953125 C 1.910156 -33.878906 3.25 -33.84375 4.875 -33.84375 C 6.507812 -33.84375 7.554688 -33.910156 8.015625 -34.046875 L 15.671875 -10.921875 L 22.390625 -33.953125 C 23.410156 -33.878906 24.671875 -33.84375 26.171875 -33.84375 C 28.203125 -33.84375 29.390625 -33.910156 29.734375 -34.046875 L 20.4375 -7.203125 C 20.4375 -7.203125 20.140625 -6.207031 19.546875 -4.21875 C 19.054688 -2.53125 18.8125 -1.429688 18.8125 -0.921875 C 18.8125 -0.421875 18.84375 -0.101562 18.90625 0.03125 Z M 18.859375 0.109375 "/></g></g></g><g fill="#d9d9d9" fill-opacity="1"><g transform="translate(204.905272, 245.646927)"><g><path d="M 21.40625 -6.109375 C 22.457031 -6.109375 23.1875 -6.207031 23.59375 -6.40625 L 23.703125 -6.390625 L 23.4375 0 L 4.375 0 L 4.375 -34.03125 C 4.832031 -34 5.34375 -33.972656 5.90625 -33.953125 L 7.6875 -33.90625 C 8.875 -33.863281 10.164062 -33.84375 11.5625 -33.84375 C 15.445312 -33.84375 19.285156 -33.910156 23.078125 -34.046875 C 22.898438 -32.554688 22.8125 -30.566406 22.8125 -28.078125 C 22.8125 -27.804688 22.828125 -27.601562 22.859375 -27.46875 L 22.8125 -27.390625 C 21.925781 -27.640625 20.664062 -27.765625 19.03125 -27.765625 L 11.015625 -27.765625 L 11.015625 -21.28125 L 17.046875 -21.28125 C 18.921875 -21.28125 20.039062 -21.332031 20.40625 -21.4375 L 20.484375 -15.140625 C 19.671875 -15.222656 18.617188 -15.265625 17.328125 -15.265625 L 11.015625 -15.265625 L 11.015625 -6.109375 Z M 21.40625 -6.109375 "/></g></g></g><g fill="#d9d9d9" fill-opacity="1"><g transform="translate(231.012802, 245.646927)"><g><path d="M 24.8125 -31.96875 L 24.328125 -24.484375 L 24.15625 -24.4375 C 22.894531 -26.320312 20.753906 -27.539062 17.734375 -28.09375 C 16.785156 -28.28125 15.875 -28.375 15 -28.375 C 14.125 -28.375 13.375 -28.296875 12.75 -28.140625 C 12.132812 -27.992188 11.609375 -27.773438 11.171875 -27.484375 C 10.242188 -26.878906 9.78125 -26.082031 9.78125 -25.09375 C 9.78125 -23.800781 10.1875 -22.832031 11 -22.1875 C 12.007812 -21.40625 13.691406 -20.859375 16.046875 -20.546875 C 18.410156 -20.234375 20.304688 -19.804688 21.734375 -19.265625 C 23.160156 -18.722656 24.332031 -18.035156 25.25 -17.203125 C 26.976562 -15.640625 27.84375 -13.4375 27.84375 -10.59375 C 27.84375 -6.851562 26.4375 -3.972656 23.625 -1.953125 C 21.207031 -0.222656 18.164062 0.640625 14.5 0.640625 C 11.550781 0.640625 8.632812 0.078125 5.75 -1.046875 C 4.800781 -1.421875 3.972656 -1.851562 3.265625 -2.34375 L 3.53125 -10.84375 L 3.640625 -10.921875 C 5.742188 -7.285156 9.195312 -5.46875 14 -5.46875 C 17.40625 -5.46875 19.660156 -6.289062 20.765625 -7.9375 C 21.140625 -8.5 21.328125 -9.125 21.328125 -9.8125 C 21.328125 -10.5 21.21875 -11.066406 21 -11.515625 C 20.78125 -11.960938 20.414062 -12.347656 19.90625 -12.671875 C 18.914062 -13.316406 17.257812 -13.75 14.9375 -13.96875 C 12.613281 -14.1875 10.710938 -14.601562 9.234375 -15.21875 C 7.765625 -15.832031 6.585938 -16.585938 5.703125 -17.484375 C 4.109375 -19.109375 3.3125 -21.382812 3.3125 -24.3125 C 3.3125 -27.332031 4.367188 -29.773438 6.484375 -31.640625 C 8.640625 -33.535156 11.546875 -34.484375 15.203125 -34.484375 C 18.859375 -34.484375 22.0625 -33.644531 24.8125 -31.96875 Z M 24.8125 -31.96875 "/></g></g></g><g fill="#d9d9d9" fill-opacity="1"><g transform="translate(261.36981, 245.646927)"><g><path d="M 11.25 0.15625 C 9.625 0.0507812 7.691406 0 5.453125 0 L 4.625 0 L 4.625 -33.984375 C 5.675781 -33.890625 6.425781 -33.84375 6.875 -33.84375 L 7.921875 -33.84375 C 9.253906 -33.84375 10.363281 -33.910156 11.25 -34.046875 L 11.25 -20.484375 L 23.21875 -20.484375 L 23.21875 -33.984375 C 24.625 -33.890625 25.992188 -33.84375 27.328125 -33.84375 C 28.660156 -33.84375 29.492188 -33.910156 29.828125 -34.046875 L 29.828125 0.15625 C 29.015625 0.0507812 27.40625 0 25 0 L 23.21875 0 L 23.21875 -14.375 L 11.25 -14.375 Z M 11.25 0.15625 "/></g></g></g></svg>