<svg xmlns="http://www.w3.org/2000/svg" xmlns:xlink="http://www.w3.org/1999/xlink" width="160" zoomAndPan="magnify" viewBox="0 0 120 119.999999" height="160" preserveAspectRatio="xMidYMid meet" version="1.0"><defs><g/><clipPath id="ffc5965cda"><path d="M 48 12 L 66 12 L 66 49 L 48 49 Z M 48 12 " clip-rule="nonzero"/></clipPath></defs><path fill="#f9f7fd" d="M 48.113281 63.757812 C 48.113281 63.757812 45.546875 65.246094 49.9375 65.75 C 55.253906 66.355469 57.96875 66.265625 63.828125 65.160156 C 63.828125 65.160156 65.367188 66.125 67.519531 66.960938 C 54.386719 72.574219 37.796875 66.632812 48.113281 63.757812 " fill-opacity="1" fill-rule="nonzero"/><path fill="#f9f7fd" d="M 46.507812 56.429688 C 46.507812 56.429688 43.632812 58.554688 48.023438 59.007812 C 53.703125 59.589844 58.1875 59.640625 65.949219 58.148438 C 65.949219 58.148438 67.023438 59.234375 68.710938 59.828125 C 52.828125 64.460938 35.140625 60.195312 46.507812 56.429688 " fill-opacity="1" fill-rule="nonzero"/><path fill="#e76f00" d="M 60.035156 44 C 63.273438 47.71875 59.1875 51.0625 59.1875 51.0625 C 59.1875 51.0625 67.40625 46.828125 63.628906 41.527344 C 60.105469 36.585938 57.402344 34.132812 72.035156 25.664062 C 72.035156 25.664062 49.066406 31.386719 60.035156 44 " fill-opacity="1" fill-rule="nonzero"/><path fill="#f9f7fd" d="M 77.40625 69.179688 C 77.40625 69.179688 79.304688 70.738281 75.320312 71.945312 C 67.738281 74.238281 43.761719 74.929688 37.105469 72.035156 C 34.710938 71 39.199219 69.554688 40.613281 69.25 C 42.085938 68.933594 42.925781 68.996094 42.925781 68.996094 C 40.265625 67.121094 25.71875 72.667969 35.539062 74.253906 C 62.316406 78.585938 84.355469 72.304688 77.40625 69.179688 " fill-opacity="1" fill-rule="nonzero"/><path fill="#f9f7fd" d="M 49.34375 48.835938 C 49.34375 48.835938 37.152344 51.726562 45.027344 52.773438 C 48.351562 53.222656 54.980469 53.121094 61.15625 52.601562 C 66.203125 52.179688 71.269531 51.273438 71.269531 51.273438 C 71.269531 51.273438 69.492188 52.035156 68.203125 52.914062 C 55.820312 56.164062 31.898438 54.652344 38.785156 51.328125 C 44.609375 48.519531 49.34375 48.835938 49.34375 48.835938 " fill-opacity="1" fill-rule="nonzero"/><path fill="#f9f7fd" d="M 71.21875 61.035156 C 83.808594 54.507812 77.984375 48.238281 73.925781 49.082031 C 72.929688 49.289062 72.484375 49.46875 72.484375 49.46875 C 72.484375 49.46875 72.855469 48.890625 73.5625 48.640625 C 81.597656 45.824219 87.777344 56.957031 70.964844 61.363281 C 70.964844 61.363281 71.160156 61.191406 71.21875 61.035156 " fill-opacity="1" fill-rule="nonzero"/><g clip-path="url(#ffc5965cda)"><path fill="#e76f00" d="M 63.628906 11.996094 C 63.628906 11.996094 70.601562 18.953125 57.019531 29.648438 C 46.125 38.230469 54.535156 43.125 57.015625 48.714844 C 50.65625 42.992188 45.988281 37.953125 49.121094 33.265625 C 53.714844 26.382812 66.441406 23.046875 63.628906 11.996094 " fill-opacity="1" fill-rule="nonzero"/></g><path fill="#f9f7fd" d="M 50.582031 78.71875 C 62.664062 79.492188 81.21875 78.289062 81.65625 72.585938 C 81.65625 72.585938 80.8125 74.75 71.671875 76.464844 C 61.359375 78.402344 48.640625 78.175781 41.097656 76.933594 C 41.097656 76.933594 42.640625 78.210938 50.582031 78.71875 " fill-opacity="1" fill-rule="nonzero"/><g fill="#f9f7fd" fill-opacity="1"><g transform="translate(18.229764, 107.427476)"><g><path d="M 2.03125 -20.671875 L 1.265625 -22.984375 L 5.109375 -22.984375 C 6.128906 -22.984375 7.019531 -22.863281 7.78125 -22.625 C 8.539062 -22.394531 9.179688 -22.015625 9.703125 -21.484375 C 10.222656 -20.960938 10.609375 -20.253906 10.859375 -19.359375 C 11.109375 -18.472656 11.234375 -17.382812 11.234375 -16.09375 C 11.234375 -14.46875 11.035156 -13.171875 10.640625 -12.203125 C 10.253906 -11.242188 9.671875 -10.519531 8.890625 -10.03125 C 9.671875 -9.675781 10.253906 -9.125 10.640625 -8.375 C 11.035156 -7.632812 11.234375 -6.628906 11.234375 -5.359375 C 11.234375 -4.347656 11.109375 -3.5 10.859375 -2.8125 C 10.609375 -2.125 10.222656 -1.570312 9.703125 -1.15625 C 9.179688 -0.75 8.539062 -0.453125 7.78125 -0.265625 C 7.019531 -0.0859375 6.128906 0 5.109375 0 L 2.03125 0 Z M 5.109375 -11.078125 C 5.679688 -11.097656 6.15625 -11.25 6.53125 -11.53125 C 6.914062 -11.820312 7.210938 -12.195312 7.421875 -12.65625 C 7.640625 -13.125 7.789062 -13.65625 7.875 -14.25 C 7.957031 -14.84375 8 -15.457031 8 -16.09375 C 8 -16.707031 7.957031 -17.3125 7.875 -17.90625 C 7.789062 -18.5 7.640625 -19.023438 7.421875 -19.484375 C 7.210938 -19.953125 6.914062 -20.332031 6.53125 -20.625 C 6.15625 -20.925781 5.679688 -21.078125 5.109375 -21.078125 Z M 5.109375 -1.453125 C 5.679688 -1.484375 6.15625 -1.609375 6.53125 -1.828125 C 6.914062 -2.046875 7.210938 -2.335938 7.421875 -2.703125 C 7.640625 -3.078125 7.789062 -3.492188 7.875 -3.953125 C 7.957031 -4.410156 8 -4.878906 8 -5.359375 C 8 -5.847656 7.957031 -6.320312 7.875 -6.78125 C 7.789062 -7.238281 7.640625 -7.640625 7.421875 -7.984375 C 7.210938 -8.335938 6.914062 -8.625 6.53125 -8.84375 C 6.15625 -9.0625 5.679688 -9.179688 5.109375 -9.203125 Z M 5.109375 -1.453125 "/></g></g></g><g fill="#f9f7fd" fill-opacity="1"><g transform="translate(30.733143, 107.427476)"><g><path d="M 1.75 -18.390625 L 4.828125 -18.390625 L 4.828125 -11.5 L 7.875 -11.5 L 7.875 -18.390625 L 10.953125 -18.390625 L 10.953125 0 L 7.875 0 L 7.875 -9.96875 L 4.828125 -9.96875 L 4.828125 0 L 1.75 0 Z M 1.75 -18.390625 "/></g></g></g><g fill="#f9f7fd" fill-opacity="1"><g transform="translate(43.426929, 107.427476)"><g><path d="M 3.296875 -16.09375 L 2.921875 -18.390625 L 6 -18.390625 L 9.046875 0 L 6 0 L 5.359375 -3.84375 L 2.796875 -3.84375 L 2.15625 0 L 0.640625 0 Z M 5.109375 -5.359375 L 4.09375 -11.5 L 3.046875 -5.359375 Z M 5.109375 -5.359375 "/></g></g></g><g fill="#f9f7fd" fill-opacity="1"><g transform="translate(53.105952, 107.427476)"><g><path d="M 0.640625 -18.390625 L 3.71875 -18.390625 L 6 -4.609375 L 8.28125 -18.390625 L 9.84375 -18.390625 L 6.765625 0 L 3.71875 0 Z M 0.640625 -18.390625 "/></g></g></g><g fill="#f9f7fd" fill-opacity="1"><g transform="translate(63.578326, 107.427476)"><g><path d="M 1.59375 -18.390625 L 8.484375 -18.390625 L 7.71875 -16.859375 L 4.671875 -16.859375 L 4.671875 -11.5 L 7.71875 -11.5 L 6.953125 -9.96875 L 4.671875 -9.96875 L 4.671875 -1.53125 L 8.484375 -1.53125 L 8.484375 0 L 1.59375 0 Z M 1.59375 -18.390625 "/></g></g></g><g fill="#f9f7fd" fill-opacity="1"><g transform="translate(73.003473, 107.427476)"><g><path d="M 4.4375 0 C 3.9375 0 3.476562 -0.101562 3.0625 -0.3125 C 2.644531 -0.53125 2.296875 -0.769531 2.015625 -1.03125 C 1.734375 -1.289062 1.503906 -1.550781 1.328125 -1.8125 C 1.160156 -2.082031 1.046875 -2.269531 0.984375 -2.375 L 2.21875 -3.390625 C 2.363281 -3.179688 2.523438 -3.003906 2.703125 -2.859375 C 2.847656 -2.734375 3.003906 -2.613281 3.171875 -2.5 C 3.335938 -2.394531 3.53125 -2.34375 3.75 -2.34375 C 4.164062 -2.34375 4.492188 -2.539062 4.734375 -2.9375 C 4.984375 -3.332031 5.109375 -3.800781 5.109375 -4.34375 C 5.109375 -4.476562 5.109375 -4.601562 5.109375 -4.71875 C 5.109375 -4.832031 5.085938 -4.953125 5.046875 -5.078125 C 4.878906 -5.773438 4.570312 -6.457031 4.125 -7.125 C 3.675781 -7.789062 3.210938 -8.476562 2.734375 -9.1875 C 2.265625 -9.894531 1.847656 -10.640625 1.484375 -11.421875 C 1.128906 -12.210938 0.953125 -13.070312 0.953125 -14 C 0.929688 -14.65625 1.015625 -15.253906 1.203125 -15.796875 C 1.398438 -16.335938 1.664062 -16.796875 2 -17.171875 C 2.34375 -17.554688 2.742188 -17.851562 3.203125 -18.0625 C 3.671875 -18.28125 4.171875 -18.390625 4.703125 -18.390625 C 5.210938 -18.390625 5.671875 -18.28125 6.078125 -18.0625 C 6.492188 -17.851562 6.84375 -17.613281 7.125 -17.34375 C 7.414062 -17.082031 7.644531 -16.816406 7.8125 -16.546875 C 7.976562 -16.285156 8.09375 -16.101562 8.15625 -16 L 6.921875 -14.984375 C 6.921875 -14.984375 6.878906 -15.035156 6.796875 -15.140625 C 6.710938 -15.242188 6.59375 -15.363281 6.4375 -15.5 C 6.289062 -15.644531 6.128906 -15.769531 5.953125 -15.875 C 5.773438 -15.976562 5.578125 -16.03125 5.359375 -16.03125 C 4.941406 -16.03125 4.609375 -15.84375 4.359375 -15.46875 C 4.117188 -15.101562 4 -14.644531 4 -14.09375 C 4 -13.820312 4.03125 -13.554688 4.09375 -13.296875 C 4.257812 -12.597656 4.566406 -11.914062 5.015625 -11.25 C 5.460938 -10.582031 5.921875 -9.894531 6.390625 -9.1875 C 6.867188 -8.476562 7.285156 -7.734375 7.640625 -6.953125 C 8.003906 -6.171875 8.1875 -5.3125 8.1875 -4.375 C 8.207031 -3.71875 8.125 -3.117188 7.9375 -2.578125 C 7.75 -2.046875 7.476562 -1.585938 7.125 -1.203125 C 6.78125 -0.828125 6.375 -0.53125 5.90625 -0.3125 C 5.4375 -0.101562 4.945312 0 4.4375 0 Z M 4.4375 0 "/></g></g></g><g fill="#f9f7fd" fill-opacity="1"><g transform="translate(82.142999, 107.427476)"><g><path d="M 1.75 -18.390625 L 4.828125 -18.390625 L 4.828125 -11.5 L 7.875 -11.5 L 7.875 -18.390625 L 10.953125 -18.390625 L 10.953125 0 L 7.875 0 L 7.875 -9.96875 L 4.828125 -9.96875 L 4.828125 0 L 1.75 0 Z M 1.75 -18.390625 "/></g></g></g></svg>