<svg xmlns="http://www.w3.org/2000/svg" xmlns:xlink="http://www.w3.org/1999/xlink" width="500" zoomAndPan="magnify" viewBox="0 0 375 374.999991" height="500" preserveAspectRatio="xMidYMid meet" version="1.0"><defs><g/><clipPath id="eb793889aa"><path d="M 117 96 L 287.84375 96 L 287.84375 199 L 117 199 Z M 117 96 " clip-rule="nonzero"/></clipPath><clipPath id="bfdf075afb"><path d="M 91.34375 175 L 282 175 L 282 247.703125 L 91.34375 247.703125 Z M 91.34375 175 " clip-rule="nonzero"/></clipPath></defs><g clip-path="url(#eb793889aa)"><path fill="#6f4323" d="M 259.761719 122.210938 C 259.859375 120.507812 259.910156 118.789062 259.914062 117.058594 C 259.914062 117.046875 259.917969 117.03125 259.914062 117.003906 C 259.914062 116.980469 259.917969 116.953125 259.910156 116.929688 C 259.859375 112.394531 256.078125 108.15625 249.546875 104.550781 C 251.679688 106.621094 252.84375 108.847656 252.84375 111.164062 C 252.84375 122.292969 226.121094 131.3125 193.15625 131.3125 C 160.191406 131.3125 133.46875 122.292969 133.46875 111.164062 C 133.46875 105.429688 140.566406 100.25 151.960938 96.582031 C 143.265625 98.382812 134.230469 100.855469 126.617188 105.582031 C 122.351562 108.234375 115.007812 114.535156 119.128906 120.183594 C 123.933594 126.777344 132.105469 131.179688 139.410156 134.339844 C 148.820312 138.414062 158.910156 140.898438 169.046875 142.300781 C 171.875 142.6875 174.714844 142.992188 177.5625 143.210938 C 198.8125 144.839844 218.039062 141.542969 230.417969 135.121094 C 220.378906 145.851562 196.011719 152.179688 168.160156 150.042969 C 148.699219 148.554688 131.550781 143.238281 120.152344 136.035156 C 121.65625 143.292969 124 150.179688 127.054688 156.542969 C 141.402344 186.40625 177.90625 198.304688 207 182.507812 C 207.136719 182.4375 207.273438 182.359375 207.40625 182.285156 C 225.199219 172.542969 238.710938 159.722656 245.082031 147.859375 C 242.90625 162.121094 226.941406 180.175781 203.625 192.941406 C 199.65625 195.117188 195.675781 197.023438 191.730469 198.667969 C 225.621094 197.21875 253.425781 168.285156 258.921875 130.609375 C 259.054688 130.609375 259.179688 130.601562 259.3125 130.601562 C 270.167969 130.601562 278.972656 138.980469 278.972656 149.316406 C 278.972656 159.652344 270.167969 168.03125 259.3125 168.03125 C 255.6875 168.03125 252.296875 167.09375 249.382812 165.464844 C 248.214844 168.082031 246.9375 170.613281 245.542969 173.054688 C 249.625 175.203125 254.316406 176.433594 259.3125 176.433594 C 275.042969 176.433594 287.796875 164.292969 287.796875 149.316406 C 287.796875 134.484375 275.285156 122.4375 259.761719 122.210938 " fill-opacity="1" fill-rule="nonzero"/></g><path fill="#bf935b" d="M 205.914062 16.199219 C 205.914062 16.199219 205.703125 16.5625 205.300781 17.242188 C 205.097656 17.582031 204.847656 17.996094 204.539062 18.472656 C 204.25 18.953125 203.921875 19.507812 203.546875 20.128906 C 203.175781 20.734375 202.773438 21.421875 202.347656 22.160156 C 201.914062 22.902344 201.464844 23.703125 201 24.558594 C 200.085938 26.277344 199.070312 28.191406 198.21875 30.308594 C 197.355469 32.417969 196.574219 34.703125 196.167969 37.070312 C 195.949219 38.257812 195.828125 39.453125 195.785156 40.660156 C 195.777344 41.867188 195.824219 43.078125 196 44.300781 C 196.183594 45.515625 196.46875 46.746094 196.847656 47.988281 C 197.238281 49.230469 197.722656 50.484375 198.296875 51.757812 C 199.445312 54.304688 200.914062 56.90625 202.535156 59.59375 C 204.140625 62.285156 205.878906 65.058594 207.5 67.984375 C 207.902344 68.714844 208.296875 69.460938 208.6875 70.207031 C 209.066406 70.96875 209.4375 71.722656 209.796875 72.5 C 210.503906 74.050781 211.183594 75.625 211.710938 77.261719 C 212.238281 78.894531 212.710938 80.546875 212.996094 82.226562 C 213.28125 83.898438 213.445312 85.582031 213.441406 87.214844 C 213.429688 88.851562 213.269531 90.441406 213 91.941406 C 212.675781 93.429688 212.320312 94.84375 211.804688 96.128906 C 210.828125 98.710938 209.5625 100.828125 208.3125 102.554688 C 207.074219 104.292969 205.808594 105.613281 204.761719 106.667969 C 203.679688 107.699219 202.804688 108.453125 202.171875 108.933594 C 201.542969 109.414062 201.210938 109.671875 201.210938 109.671875 C 201.210938 109.671875 201.371094 109.285156 201.675781 108.554688 C 201.828125 108.191406 202.035156 107.757812 202.246094 107.238281 C 202.449219 106.710938 202.699219 106.121094 202.976562 105.464844 C 203.46875 104.125 204.105469 102.539062 204.605469 100.699219 C 205.132812 98.871094 205.589844 96.824219 205.769531 94.652344 C 205.976562 92.480469 205.867188 90.203125 205.394531 87.894531 C 205.132812 86.738281 204.847656 85.570312 204.40625 84.394531 C 203.957031 83.21875 203.484375 82.015625 202.882812 80.808594 C 202.28125 79.605469 201.621094 78.371094 200.890625 77.121094 C 200.15625 75.878906 199.363281 74.613281 198.535156 73.316406 C 196.882812 70.722656 195.082031 68.015625 193.335938 65.109375 C 191.601562 62.214844 189.9375 59.078125 188.652344 55.679688 C 188.007812 53.988281 187.5 52.203125 187.132812 50.394531 C 186.769531 48.582031 186.527344 46.734375 186.535156 44.902344 C 186.539062 43.066406 186.679688 41.265625 187.027344 39.554688 C 187.226562 38.703125 187.394531 37.859375 187.65625 37.058594 C 187.78125 36.65625 187.898438 36.253906 188.03125 35.867188 C 188.179688 35.480469 188.328125 35.101562 188.476562 34.726562 C 189.667969 31.714844 191.285156 29.226562 192.910156 27.132812 C 194.539062 25.035156 196.242188 23.371094 197.785156 21.972656 C 198.578125 21.292969 199.292969 20.644531 200.019531 20.113281 C 200.726562 19.566406 201.367188 19.0625 201.992188 18.652344 C 203.203125 17.785156 204.183594 17.199219 204.863281 16.804688 C 205.550781 16.410156 205.914062 16.199219 205.914062 16.199219 " fill-opacity="1" fill-rule="nonzero"/><path fill="#bf935b" d="M 177.644531 38.90625 C 177.644531 38.90625 177.671875 39.210938 177.691406 39.773438 C 177.714844 40.328125 177.71875 41.167969 177.773438 42.191406 C 177.871094 43.207031 177.898438 44.375 178.113281 45.730469 C 178.160156 46.066406 178.199219 46.410156 178.234375 46.761719 C 178.304688 47.109375 178.375 47.46875 178.449219 47.835938 C 178.523438 48.199219 178.585938 48.574219 178.652344 48.949219 C 178.75 49.320312 178.847656 49.699219 178.953125 50.085938 C 179.3125 51.632812 179.917969 53.21875 180.582031 54.847656 C 181.300781 56.46875 182.175781 58.113281 183.167969 59.792969 C 183.71875 60.617188 184.210938 61.472656 184.800781 62.328125 C 185.359375 63.179688 186 64.039062 186.59375 64.921875 C 187.890625 66.710938 189.207031 68.527344 190.523438 70.34375 C 191.859375 72.207031 193.199219 74.164062 194.429688 76.195312 C 194.738281 76.707031 195.054688 77.199219 195.351562 77.722656 C 195.632812 78.246094 195.917969 78.769531 196.199219 79.289062 C 196.738281 80.359375 197.296875 81.386719 197.734375 82.492188 C 198.6875 84.628906 199.363281 86.859375 199.847656 88.984375 C 200.042969 90.066406 200.273438 91.09375 200.34375 92.128906 C 200.390625 92.640625 200.433594 93.140625 200.480469 93.632812 C 200.488281 94.128906 200.507812 94.613281 200.503906 95.085938 C 200.523438 96.03125 200.453125 96.933594 200.367188 97.78125 C 200.300781 98.632812 200.175781 99.429688 200.015625 100.167969 C 199.765625 101.652344 199.320312 102.890625 199.003906 103.898438 C 198.65625 104.902344 198.25 105.648438 198.035156 106.164062 C 197.800781 106.675781 197.65625 106.941406 197.65625 106.941406 C 197.65625 106.941406 197.597656 106.636719 197.523438 106.082031 C 197.449219 105.535156 197.335938 104.734375 197.195312 103.714844 C 196.992188 102.707031 196.863281 101.507812 196.519531 100.183594 C 196.441406 99.847656 196.371094 99.507812 196.300781 99.160156 C 196.226562 98.8125 196.101562 98.460938 196.003906 98.097656 C 195.800781 97.378906 195.621094 96.628906 195.324219 95.871094 C 195.183594 95.488281 195.066406 95.101562 194.9375 94.710938 C 194.78125 94.328125 194.617188 93.933594 194.457031 93.539062 C 194.160156 92.742188 193.769531 91.945312 193.386719 91.132812 C 192.589844 89.515625 191.691406 87.859375 190.617188 86.183594 C 190.097656 85.347656 189.511719 84.496094 188.949219 83.636719 C 188.34375 82.78125 187.734375 81.910156 187.117188 81.035156 C 185.816406 79.246094 184.496094 77.421875 183.171875 75.601562 C 181.832031 73.71875 180.503906 71.769531 179.269531 69.722656 C 178.652344 68.695312 178.054688 67.667969 177.523438 66.585938 C 176.957031 65.539062 176.46875 64.429688 176.007812 63.347656 C 175.113281 61.136719 174.460938 58.882812 174.0625 56.703125 C 173.726562 54.503906 173.585938 52.402344 173.753906 50.492188 C 173.792969 50.019531 173.835938 49.554688 173.871094 49.101562 C 173.945312 48.652344 174.011719 48.214844 174.097656 47.792969 C 174.175781 47.371094 174.253906 46.960938 174.328125 46.5625 C 174.4375 46.171875 174.542969 45.792969 174.652344 45.433594 C 175.035156 43.980469 175.59375 42.746094 176.015625 41.777344 C 176.210938 41.277344 176.472656 40.898438 176.671875 40.539062 C 176.875 40.1875 177.050781 39.886719 177.191406 39.644531 C 177.476562 39.160156 177.644531 38.90625 177.644531 38.90625 " fill-opacity="1" fill-rule="nonzero"/><g clip-path="url(#bfdf075afb)"><path fill="#351f17" d="M 260.246094 182.847656 C 260.246094 182.847656 282.925781 198.667969 265.253906 213.550781 C 265.253906 213.550781 271.847656 198.148438 243.652344 179.304688 C 217.058594 213.550781 155.941406 206.640625 155.941406 206.640625 L 181.640625 195.910156 C 180.933594 195.933594 180.222656 195.945312 179.511719 195.945312 C 164.347656 195.945312 149.878906 190.519531 138.492188 181.1875 C 127.886719 186.644531 121.527344 193.589844 121.527344 201.148438 C 121.527344 218.699219 155.726562 232.929688 197.917969 232.929688 C 205.574219 232.929688 212.964844 232.457031 219.9375 231.585938 C 208.859375 234.191406 196.066406 235.675781 182.433594 235.675781 C 140.246094 235.675781 106.046875 221.449219 106.046875 203.894531 C 106.046875 193.671875 117.664062 184.578125 135.699219 178.765625 C 134.515625 177.675781 133.375 176.546875 132.269531 175.371094 C 107.53125 182.523438 91.324219 194.433594 91.324219 207.917969 C 91.324219 229.792969 133.953125 247.527344 186.535156 247.527344 C 239.121094 247.527344 281.746094 229.792969 281.746094 207.917969 C 281.746094 198.402344 273.679688 189.675781 260.246094 182.847656 " fill-opacity="1" fill-rule="nonzero"/></g><g fill="#ffffff" fill-opacity="1"><g transform="translate(69.949839, 356.101114)"><g><path d="M 71.476562 -78.828125 C 70.488281 -80.375 68.820312 -82.226562 68.390625 -82.226562 C 67.957031 -82.289062 65.855469 -83.957031 65.917969 -84.265625 C 65.917969 -84.390625 65.734375 -84.511719 65.546875 -84.511719 C 64.929688 -84.511719 63.753906 -84.824219 61.039062 -85.8125 C 59.800781 -86.242188 58.132812 -86.675781 57.269531 -86.859375 C 56.402344 -86.984375 55.355469 -87.171875 54.921875 -87.292969 C 54.425781 -87.355469 54.054688 -87.355469 54.054688 -87.230469 C 54.054688 -87.046875 53.4375 -87.046875 52.449219 -87.171875 C 49.421875 -87.539062 41.949219 -86.738281 38.613281 -85.625 C 37.808594 -85.316406 36.386719 -84.945312 35.523438 -84.636719 C 34.347656 -84.265625 34.039062 -84.082031 34.289062 -83.832031 C 34.410156 -83.710938 34.90625 -83.648438 35.335938 -83.710938 C 35.832031 -83.773438 36.015625 -83.773438 35.832031 -83.585938 C 35.585938 -83.15625 35.707031 -83.15625 36.820312 -83.648438 C 37.871094 -84.082031 38.671875 -84.144531 38.054688 -83.773438 C 37.808594 -83.648438 36.324219 -83.09375 34.78125 -82.597656 C 33.175781 -82.042969 31.753906 -81.488281 31.570312 -81.300781 C 31.320312 -81.117188 30.640625 -80.746094 30.023438 -80.496094 C 29.34375 -80.25 28.789062 -79.941406 28.726562 -79.878906 C 28.664062 -79.757812 27.304688 -79.015625 25.761719 -78.210938 C 24.21875 -77.410156 22.671875 -76.542969 22.300781 -76.296875 C 21.929688 -76.050781 21.128906 -75.554688 20.574219 -75.125 C 17.976562 -73.457031 9.515625 -65.734375 7.535156 -63.261719 C 3.582031 -58.320312 1.667969 -54.613281 1.171875 -51.089844 C 1.050781 -50.410156 0.863281 -49.917969 0.742188 -49.980469 C 0.371094 -50.226562 0.308594 -48.742188 0.679688 -47.199219 C 0.863281 -46.335938 1.605469 -44.480469 2.222656 -43.121094 C 3.335938 -40.960938 3.832031 -40.339844 6.363281 -37.808594 C 8.03125 -36.203125 9.824219 -34.535156 10.503906 -34.164062 C 11.183594 -33.667969 11.921875 -33.175781 12.171875 -32.929688 C 12.355469 -32.742188 12.851562 -32.496094 13.21875 -32.371094 C 13.652344 -32.308594 13.960938 -32.125 13.960938 -32 C 13.960938 -31.878906 14.394531 -31.691406 14.890625 -31.628906 C 15.320312 -31.507812 15.753906 -31.382812 15.753906 -31.199219 C 15.753906 -31.074219 16 -30.953125 16.308594 -30.953125 C 16.617188 -30.953125 17.113281 -30.828125 17.421875 -30.703125 C 18.039062 -30.332031 21.4375 -29.34375 24.21875 -28.726562 L 26.007812 -28.292969 L 26.070312 -24.277344 C 26.070312 -19.152344 26.503906 -17.234375 28.046875 -14.765625 C 28.726562 -13.839844 29.222656 -12.910156 29.28125 -12.726562 C 29.28125 -12.601562 29.34375 -12.230469 29.34375 -11.921875 C 29.46875 -10.933594 29.714844 -10.503906 30.210938 -10.5625 C 30.457031 -10.625 30.765625 -10.5625 30.953125 -10.441406 C 31.074219 -10.378906 31.753906 -10.253906 32.371094 -10.195312 C 33.296875 -10.132812 33.609375 -10.195312 33.730469 -10.441406 C 33.792969 -10.6875 34.101562 -10.8125 34.472656 -10.6875 C 34.84375 -10.5625 34.96875 -10.5625 34.71875 -10.75 C 34.410156 -10.933594 34.472656 -11.058594 34.84375 -11.183594 C 35.089844 -11.304688 35.398438 -11.367188 35.523438 -11.367188 C 35.644531 -11.304688 35.644531 -11.429688 35.585938 -11.550781 C 35.523438 -11.675781 35.523438 -11.863281 35.707031 -11.921875 C 35.832031 -12.046875 35.832031 -12.355469 35.707031 -12.664062 C 35.585938 -13.160156 35.707031 -13.40625 36.636719 -14.269531 C 37.253906 -14.828125 37.746094 -15.382812 37.746094 -15.507812 C 37.746094 -15.628906 39.105469 -17.050781 40.710938 -18.71875 C 42.378906 -20.324219 43.738281 -21.746094 43.738281 -21.871094 C 43.738281 -21.992188 44.046875 -22.300781 44.417969 -22.609375 C 44.789062 -22.859375 45.839844 -23.597656 46.644531 -24.277344 C 47.507812 -25.019531 48.433594 -25.515625 48.742188 -25.515625 C 49.113281 -25.515625 49.421875 -25.453125 49.421875 -25.390625 C 49.421875 -25.082031 44.667969 -20.632812 44.296875 -20.632812 C 44.109375 -20.632812 43.863281 -20.386719 43.738281 -20.015625 C 43.617188 -19.769531 42.320312 -18.164062 40.898438 -16.617188 C 37.933594 -13.46875 36.203125 -11.304688 34.289062 -8.585938 C 33.609375 -7.597656 32.867188 -6.671875 32.742188 -6.488281 C 32.558594 -6.363281 32.308594 -6.054688 32.25 -5.746094 C 32.125 -5.5 32 -5.375 31.941406 -5.558594 C 31.753906 -5.808594 33.050781 -7.847656 33.976562 -8.894531 C 34.226562 -9.203125 34.410156 -9.636719 34.347656 -9.824219 C 34.289062 -10.007812 33.976562 -9.761719 33.609375 -9.203125 C 32.929688 -8.15625 32.0625 -7.785156 32.621094 -8.710938 C 32.929688 -9.390625 32.929688 -9.761719 32.496094 -9.761719 C 32.1875 -9.761719 29.40625 -5.683594 28.972656 -4.511719 C 28.851562 -4.140625 28.605469 -3.769531 28.480469 -3.644531 C 28.292969 -3.582031 28.292969 -3.832031 28.605469 -4.324219 C 28.789062 -4.757812 28.851562 -5.066406 28.789062 -5.066406 C 28.417969 -5.066406 27.613281 -2.65625 27.925781 -2.59375 C 28.234375 -2.472656 28.292969 -1.171875 27.984375 -0.863281 C 27.613281 -0.496094 28.234375 4.015625 28.851562 5.25 C 29.34375 6.238281 32.1875 8.894531 33.296875 9.453125 C 33.792969 9.699219 34.65625 10.007812 35.027344 10.132812 C 35.460938 10.253906 36.265625 10.253906 36.757812 10.132812 C 38.304688 9.699219 39.722656 9.328125 39.972656 9.082031 C 40.09375 9.019531 41.640625 8.214844 43.308594 7.351562 C 46.457031 5.683594 46.953125 5.375 49.175781 3.460938 C 49.917969 2.84375 50.96875 2.101562 51.585938 1.851562 C 53.4375 0.988281 53.808594 0.742188 53.808594 0.496094 C 53.808594 0.433594 53.6875 0.371094 53.5 0.496094 C 53.316406 0.554688 53.625 0.183594 54.179688 -0.371094 C 54.796875 -0.925781 55.539062 -1.851562 55.972656 -2.347656 C 56.34375 -2.84375 56.835938 -3.273438 57.023438 -3.273438 C 57.269531 -3.273438 57.453125 -3.398438 57.453125 -3.519531 C 57.453125 -3.644531 58.257812 -4.820312 59.308594 -6.054688 C 61.039062 -8.15625 62.707031 -10.5625 63.199219 -11.550781 C 63.324219 -11.800781 63.570312 -12.230469 63.753906 -12.601562 C 64.3125 -13.53125 64.25 -16.558594 63.695312 -18.347656 C 63.445312 -19.089844 62.890625 -20.386719 62.398438 -21.128906 C 61.46875 -22.488281 58.320312 -25.453125 56.21875 -26.8125 C 55.046875 -27.554688 55.046875 -27.613281 55.601562 -28.046875 C 55.910156 -28.292969 56.15625 -28.664062 56.15625 -28.789062 C 56.15625 -28.914062 56.464844 -29.34375 56.835938 -29.714844 C 57.453125 -30.394531 57.515625 -30.519531 57.144531 -30.765625 C 56.589844 -31.074219 56.464844 -31.074219 55.722656 -30.210938 C 55.292969 -29.777344 54.859375 -29.40625 54.734375 -29.40625 C 54.613281 -29.40625 54.304688 -29.222656 53.996094 -28.972656 C 53.4375 -28.480469 52.511719 -28.292969 52.511719 -28.664062 C 52.511719 -28.789062 52.636719 -28.914062 52.699219 -28.914062 C 52.820312 -28.914062 53.191406 -29.097656 53.4375 -29.40625 C 53.6875 -29.652344 54.425781 -30.148438 55.105469 -30.519531 C 56.773438 -31.507812 58.132812 -32.867188 58.132812 -33.546875 C 58.195312 -34.226562 57.703125 -34.164062 57.332031 -33.421875 C 56.960938 -32.804688 56.09375 -32.0625 55.664062 -32.0625 C 55.539062 -32.0625 55.355469 -31.878906 55.355469 -31.753906 C 55.355469 -31.570312 55.230469 -31.507812 54.984375 -31.570312 C 54.734375 -31.691406 54.613281 -31.628906 54.613281 -31.507812 C 54.613281 -31.382812 54.054688 -30.890625 53.378906 -30.332031 C 52.699219 -29.839844 52.019531 -29.34375 51.832031 -29.160156 C 51.585938 -28.972656 51.089844 -29.035156 49.980469 -29.34375 C 49.175781 -29.53125 47.324219 -29.960938 45.902344 -30.210938 C 44.480469 -30.457031 43 -30.828125 42.566406 -30.953125 C 42.195312 -31.136719 41.761719 -31.199219 41.640625 -31.074219 C 41.332031 -30.890625 37.5 -31.507812 37.5 -31.753906 C 37.5 -31.816406 37.933594 -32.1875 38.488281 -32.433594 C 39.414062 -32.929688 43.058594 -35.585938 45.160156 -37.253906 C 46.148438 -38.117188 49.730469 -41.390625 50.289062 -42.070312 C 50.472656 -42.257812 50.71875 -42.566406 50.96875 -42.6875 C 51.957031 -43.492188 60.417969 -52.078125 62.335938 -54.179688 C 65.855469 -58.132812 69.75 -63.570312 71.167969 -66.597656 C 71.601562 -67.585938 72.035156 -68.574219 72.21875 -68.820312 C 72.589844 -69.5625 73.207031 -72.40625 73.207031 -73.703125 C 73.207031 -75.371094 72.652344 -77.101562 71.476562 -78.828125 Z M 46.085938 -86.242188 C 46.210938 -86.367188 46.457031 -86.367188 46.644531 -86.242188 C 46.828125 -86.179688 46.765625 -86.121094 46.457031 -86.121094 C 46.148438 -86.121094 46.023438 -86.179688 46.085938 -86.242188 Z M 43.988281 -85.625 C 44.171875 -85.996094 44.355469 -86.121094 44.417969 -85.871094 C 44.480469 -85.75 44.726562 -85.5625 44.976562 -85.5625 C 45.347656 -85.5625 45.347656 -85.503906 45.035156 -85.316406 C 44.789062 -85.191406 44.417969 -85.070312 44.171875 -85.070312 C 43.738281 -85.070312 43.738281 -85.132812 43.988281 -85.625 Z M 38.796875 -84.824219 C 39.847656 -85.253906 43.183594 -85.871094 43.554688 -85.75 C 43.738281 -85.6875 43.675781 -85.5625 43.367188 -85.5625 C 43.121094 -85.5625 43 -85.441406 43.121094 -85.191406 C 43.183594 -84.945312 43.121094 -84.761719 42.8125 -84.761719 C 42.566406 -84.761719 42.441406 -84.945312 42.566406 -85.070312 C 42.628906 -85.191406 42.566406 -85.316406 42.441406 -85.316406 C 42.320312 -85.316406 42.195312 -85.132812 42.195312 -84.945312 C 42.195312 -84.699219 42.007812 -84.511719 41.824219 -84.511719 C 41.578125 -84.511719 41.269531 -84.511719 41.082031 -84.390625 C 40.898438 -84.328125 40.652344 -84.328125 40.527344 -84.453125 C 40.464844 -84.511719 39.910156 -84.574219 39.292969 -84.574219 C 38.304688 -84.574219 38.242188 -84.636719 38.796875 -84.824219 Z M 34.535156 -53.007812 C 34.65625 -52.882812 34.65625 -52.574219 34.535156 -52.386719 C 34.472656 -52.203125 34.410156 -52.328125 34.410156 -52.699219 C 34.410156 -53.066406 34.472656 -53.191406 34.535156 -53.007812 Z M 27.429688 -43.121094 C 27.304688 -42.257812 27.367188 -41.453125 27.492188 -41.207031 C 27.613281 -40.898438 27.613281 -40.710938 27.492188 -40.589844 C 27.304688 -40.527344 27.058594 -38.984375 26.875 -37.191406 C 26.75 -35.398438 26.566406 -33.667969 26.503906 -33.359375 C 26.378906 -32.988281 26.132812 -32.804688 25.761719 -32.804688 C 25.453125 -32.804688 25.144531 -32.867188 25.082031 -32.929688 C 25.019531 -32.988281 24.464844 -33.050781 23.910156 -33.175781 C 19.273438 -33.730469 14.890625 -35.214844 11.304688 -37.375 C 7.90625 -39.414062 6.671875 -40.652344 5.621094 -42.875 C 4.878906 -44.355469 4.820312 -44.851562 4.820312 -47.015625 C 4.820312 -48.804688 5.003906 -50.039062 5.4375 -51.460938 C 5.746094 -52.511719 5.992188 -53.5625 5.992188 -53.746094 C 5.992188 -53.933594 6.117188 -54.179688 6.179688 -54.242188 C 6.238281 -54.367188 6.917969 -55.230469 7.597656 -56.21875 C 9.574219 -59.183594 13.589844 -64.066406 15.320312 -65.609375 C 15.753906 -65.980469 16.867188 -67.03125 17.792969 -67.894531 C 18.65625 -68.820312 19.523438 -69.5 19.582031 -69.5 C 19.644531 -69.5 20.261719 -70.058594 21.003906 -70.675781 C 21.746094 -71.230469 23.597656 -72.589844 25.082031 -73.515625 C 26.566406 -74.503906 27.863281 -75.433594 27.925781 -75.492188 C 27.984375 -75.554688 28.605469 -75.925781 29.34375 -76.234375 C 30.273438 -76.730469 30.640625 -76.792969 30.765625 -76.542969 C 30.953125 -76.296875 31.074219 -76.359375 31.261719 -76.730469 C 31.445312 -77.039062 31.753906 -77.285156 31.941406 -77.285156 C 32.371094 -77.285156 32.433594 -76.914062 32.125 -76.667969 C 32 -76.542969 31.941406 -76.296875 32 -75.988281 C 32.0625 -75.742188 32 -75.492188 31.878906 -75.492188 C 31.691406 -75.492188 31.628906 -75.125 31.691406 -74.691406 C 31.691406 -74.445312 31.691406 -74.074219 31.628906 -73.703125 C 31.445312 -73.640625 31.136719 -73.515625 30.765625 -73.394531 C 30.953125 -73.207031 31.011719 -73.023438 31.074219 -72.835938 C 31.199219 -72.898438 31.382812 -72.960938 31.507812 -73.085938 C 31.261719 -72.15625 31.136719 -71.664062 30.765625 -68.203125 C 30.582031 -66.90625 30.394531 -65.609375 30.394531 -65.363281 C 30.085938 -63.199219 29.902344 -62.519531 29.714844 -62.398438 C 29.53125 -62.335938 29.59375 -62.085938 29.714844 -61.902344 C 29.902344 -61.71875 29.960938 -61.410156 29.902344 -61.222656 C 29.652344 -60.914062 28.972656 -56.09375 28.171875 -49.175781 C 27.925781 -46.644531 27.554688 -43.925781 27.429688 -43.121094 Z M 28.726562 -22.671875 C 28.480469 -22.671875 28.542969 -27.304688 28.789062 -27.554688 C 28.851562 -27.613281 28.914062 -26.503906 28.914062 -25.207031 C 28.972656 -23.660156 28.851562 -22.671875 28.726562 -22.671875 Z M 28.726562 -21.5 C 28.605469 -21.4375 28.480469 -21.5625 28.480469 -21.808594 C 28.480469 -21.992188 28.605469 -22.179688 28.726562 -22.179688 C 28.851562 -22.179688 28.972656 -22.054688 28.972656 -21.929688 C 28.972656 -21.808594 28.851562 -21.621094 28.726562 -21.5 Z M 31.753906 -22.859375 C 31.691406 -22.609375 31.628906 -22.859375 31.628906 -23.476562 C 31.628906 -24.09375 31.691406 -24.339844 31.753906 -24.03125 C 31.816406 -23.722656 31.816406 -23.230469 31.753906 -22.859375 Z M 32.25 -58.75 C 32.1875 -58.195312 31.941406 -56.21875 31.691406 -54.242188 C 31.507812 -52.328125 31.261719 -50.597656 31.136719 -50.351562 C 30.890625 -49.671875 29.960938 -39.476562 29.902344 -36.265625 C 29.839844 -35.089844 29.714844 -34.71875 29.40625 -34.65625 C 28.972656 -34.535156 28.789062 -34.90625 29.160156 -35.214844 C 29.28125 -35.277344 29.34375 -36.015625 29.34375 -36.757812 C 29.40625 -37.5 29.46875 -38.796875 29.59375 -39.660156 C 29.652344 -40.527344 29.839844 -41.886719 29.902344 -42.75 C 30.023438 -44.605469 30.148438 -45.65625 30.519531 -48.433594 C 31.011719 -52.140625 31.074219 -52.574219 31.199219 -53.625 C 31.261719 -54.179688 31.382812 -55.292969 31.445312 -56.09375 C 31.507812 -56.898438 31.691406 -57.824219 31.816406 -58.257812 C 31.941406 -58.628906 32 -59.0625 31.941406 -59.183594 C 31.878906 -59.308594 31.941406 -59.492188 32.125 -59.617188 C 32.308594 -59.738281 32.371094 -59.429688 32.25 -58.75 Z M 32.25 -59.925781 C 32.125 -59.925781 32.0625 -60.109375 32.1875 -60.359375 C 32.25 -60.605469 32.308594 -60.976562 32.308594 -61.160156 C 32.308594 -61.347656 32.433594 -61.46875 32.558594 -61.46875 C 32.679688 -61.46875 32.742188 -61.160156 32.679688 -60.730469 C 32.621094 -60.296875 32.433594 -59.925781 32.25 -59.925781 Z M 32.804688 -36.324219 C 32.742188 -36.015625 32.679688 -36.324219 32.679688 -36.945312 C 32.679688 -37.5625 32.742188 -37.808594 32.804688 -37.5 C 32.867188 -37.191406 32.867188 -36.636719 32.804688 -36.324219 Z M 32.621094 -63.078125 C 32.621094 -63.199219 32.742188 -63.324219 32.867188 -63.324219 C 32.988281 -63.324219 33.113281 -63.261719 33.113281 -63.199219 C 33.113281 -63.136719 32.988281 -63.015625 32.867188 -62.890625 C 32.742188 -62.828125 32.621094 -62.890625 32.621094 -63.078125 Z M 33.175781 -40.339844 C 33.050781 -38.242188 32.929688 -38.054688 32.867188 -39.847656 C 32.867188 -40.773438 32.929688 -41.578125 33.050781 -41.578125 C 33.113281 -41.578125 33.175781 -41.019531 33.175781 -40.339844 Z M 33.296875 -42.566406 C 33.238281 -42.257812 33.175781 -42.566406 33.175781 -43.246094 C 33.175781 -43.988281 33.238281 -44.234375 33.296875 -43.863281 C 33.359375 -43.429688 33.359375 -42.875 33.296875 -42.566406 Z M 33.546875 -45.285156 C 33.484375 -45.035156 33.421875 -45.160156 33.421875 -45.59375 C 33.421875 -46.023438 33.484375 -46.210938 33.546875 -46.085938 C 33.609375 -45.902344 33.609375 -45.53125 33.546875 -45.285156 Z M 33.730469 -46.765625 C 33.667969 -46.765625 33.609375 -47.015625 33.609375 -47.382812 C 33.609375 -47.753906 33.730469 -48.0625 33.855469 -48.0625 C 33.976562 -48.0625 34.039062 -47.753906 33.976562 -47.382812 C 33.855469 -47.015625 33.792969 -46.765625 33.730469 -46.765625 Z M 46.582031 -21.25 C 47.753906 -22.550781 47.941406 -22.609375 47.691406 -22.117188 C 47.570312 -21.929688 47.074219 -21.375 46.457031 -20.882812 L 45.40625 -20.015625 Z M 43.988281 -18.84375 C 45.160156 -20.015625 45.160156 -19.707031 44.046875 -18.472656 C 41.949219 -16.125 40.339844 -14.269531 39.785156 -13.53125 C 39.476562 -13.160156 38.796875 -12.417969 38.363281 -11.921875 C 37.871094 -11.429688 37.5 -10.933594 37.5 -10.8125 C 37.5 -10.625 37.375 -10.503906 37.253906 -10.503906 C 37.128906 -10.503906 37.003906 -10.378906 37.003906 -10.195312 C 37.003906 -10.007812 36.695312 -9.574219 36.324219 -9.203125 C 33.976562 -7.105469 40.589844 -15.320312 43.988281 -18.84375 Z M 34.65625 -7.167969 C 34.84375 -7.476562 34.96875 -7.660156 35.089844 -7.660156 C 35.152344 -7.660156 35.089844 -7.476562 34.90625 -7.167969 C 34.78125 -6.917969 34.597656 -6.671875 34.472656 -6.671875 C 34.410156 -6.671875 34.472656 -6.917969 34.65625 -7.167969 Z M 33.609375 -5.621094 C 33.730469 -5.621094 33.855469 -5.558594 33.855469 -5.5 C 33.855469 -5.4375 33.730469 -5.3125 33.609375 -5.1875 C 33.484375 -5.128906 33.359375 -5.1875 33.359375 -5.375 C 33.359375 -5.5 33.484375 -5.621094 33.609375 -5.621094 Z M 32.0625 -7.660156 C 32.1875 -7.660156 32.308594 -7.597656 32.308594 -7.414062 C 32.308594 -7.289062 32.1875 -7.167969 32.0625 -7.167969 C 31.941406 -7.167969 31.816406 -7.289062 31.816406 -7.414062 C 31.816406 -7.597656 31.941406 -7.660156 32.0625 -7.660156 Z M 30.765625 -4.941406 C 30.640625 -4.878906 30.519531 -4.941406 30.519531 -5.066406 C 30.519531 -5.1875 30.640625 -5.4375 30.765625 -5.5 C 30.890625 -5.558594 31.011719 -5.558594 31.011719 -5.375 C 31.011719 -5.25 30.890625 -5.066406 30.765625 -4.941406 Z M 34.472656 6.488281 C 34.289062 6.179688 34.84375 5.808594 35.769531 5.558594 C 36.140625 5.5 36.449219 5.3125 36.449219 5.25 C 36.449219 5.128906 36.574219 5.003906 36.757812 5.003906 C 37.191406 5.003906 39.910156 3.644531 40.03125 3.398438 C 40.09375 3.273438 40.28125 3.210938 40.402344 3.210938 C 40.773438 3.210938 45.53125 0 47.199219 -1.359375 C 48.621094 -2.472656 50.78125 -4.261719 51.585938 -5.066406 C 51.894531 -5.3125 52.882812 -6.363281 53.871094 -7.476562 C 54.796875 -8.527344 55.910156 -9.761719 56.402344 -10.253906 L 57.207031 -11.183594 L 56.34375 -10.007812 C 52.511719 -4.757812 47.382812 -0.0625 41.578125 3.644531 C 38.984375 5.3125 34.78125 6.917969 34.472656 6.488281 Z M 43.925781 3.335938 C 43.800781 3.519531 42.9375 4.078125 42.007812 4.511719 C 41.207031 4.941406 40.402344 5.375 40.339844 5.5 C 40.28125 5.621094 39.910156 5.808594 39.601562 5.867188 C 39.230469 5.992188 39.660156 5.621094 40.464844 5.128906 C 41.332031 4.570312 42.441406 3.890625 42.9375 3.519531 C 43.988281 2.84375 44.480469 2.71875 43.925781 3.335938 Z M 57.886719 -10.8125 C 57.761719 -10.8125 57.703125 -10.625 57.761719 -10.378906 C 57.824219 -10.195312 57.824219 -10.007812 57.703125 -10.007812 C 57.578125 -10.007812 57.207031 -9.574219 56.898438 -9.019531 C 56.34375 -8.09375 54.304688 -5.683594 52.882812 -4.199219 C 52.574219 -3.953125 52.265625 -3.460938 52.203125 -3.210938 C 52.078125 -2.964844 51.832031 -2.78125 51.585938 -2.78125 C 51.398438 -2.78125 50.472656 -2.039062 49.546875 -1.171875 C 46.953125 1.359375 46.457031 1.792969 45.777344 1.976562 C 45.40625 2.101562 45.035156 2.285156 44.914062 2.347656 C 44.726562 2.472656 44.914062 2.285156 45.222656 2.039062 C 50.96875 -2.65625 56.34375 -8.277344 57.453125 -10.6875 C 57.703125 -11.429688 58.195312 -11.738281 58.195312 -11.183594 C 58.195312 -10.996094 58.070312 -10.8125 57.886719 -10.8125 Z M 60.542969 -10.195312 C 60.542969 -9.945312 60.417969 -9.761719 60.359375 -9.761719 C 60.234375 -9.761719 59.925781 -9.328125 59.679688 -8.894531 C 59.121094 -7.847656 58.195312 -6.917969 58.195312 -7.414062 C 58.195312 -7.535156 58.320312 -7.660156 58.441406 -7.722656 C 58.566406 -7.785156 59.0625 -8.464844 59.617188 -9.203125 C 60.109375 -10.007812 60.542969 -10.441406 60.542969 -10.195312 Z M 56.15625 -23.539062 C 59.246094 -22.179688 59.492188 -21.929688 59.492188 -19.460938 C 59.492188 -17.792969 58.320312 -14.519531 57.703125 -14.519531 C 57.332031 -14.519531 56.898438 -13.898438 57.082031 -13.46875 C 57.144531 -13.28125 57.023438 -13.097656 56.835938 -13.097656 C 56.589844 -13.097656 56.402344 -13.035156 56.402344 -12.910156 C 56.402344 -12.789062 55.476562 -11.550781 54.304688 -10.195312 C 52.265625 -7.722656 51.957031 -7.167969 52.574219 -7.597656 C 52.945312 -7.847656 51.398438 -5.808594 50.84375 -5.375 C 50.226562 -4.878906 50.351562 -5.375 51.03125 -5.992188 C 51.339844 -6.300781 51.769531 -6.734375 51.957031 -6.980469 C 52.265625 -7.414062 52.203125 -7.414062 51.398438 -6.917969 C 50.84375 -6.609375 50.472656 -6.238281 50.472656 -6.117188 C 50.472656 -5.992188 49.980469 -5.375 49.421875 -4.757812 C 48.804688 -4.140625 48.371094 -3.460938 48.371094 -3.273438 C 48.371094 -3.089844 48.3125 -3.027344 48.25 -3.089844 C 48.125 -3.210938 47.816406 -2.964844 47.507812 -2.71875 C 45.285156 -0.679688 43.925781 0.308594 42.503906 0.804688 C 42.007812 0.988281 41.269531 1.359375 40.835938 1.730469 C 40.339844 2.039062 39.539062 2.53125 38.921875 2.78125 C 38.363281 3.089844 37.808594 3.335938 37.746094 3.460938 C 37.683594 3.582031 37.128906 3.769531 36.574219 3.953125 C 36.015625 4.078125 35.089844 4.261719 34.535156 4.449219 C 33.175781 4.757812 32 4.820312 32.1875 4.511719 C 32.308594 4.324219 32.1875 4.261719 31.941406 4.324219 C 31.691406 4.511719 31.570312 4.324219 31.570312 4.015625 C 31.570312 2.964844 33.421875 -1.851562 34.71875 -4.015625 C 35.460938 -5.25 36.140625 -6.488281 36.324219 -6.796875 C 37.4375 -8.648438 39.660156 -11.800781 40.898438 -13.097656 C 43.554688 -16 46.148438 -18.65625 47.941406 -20.261719 C 49.113281 -21.375 50.660156 -22.859375 51.460938 -23.539062 C 53.007812 -25.019531 52.820312 -25.019531 56.15625 -23.539062 Z M 51.460938 -27.863281 C 51.585938 -27.863281 51.769531 -27.738281 51.894531 -27.613281 C 51.957031 -27.492188 51.894531 -27.367188 51.769531 -27.367188 C 51.648438 -27.367188 51.460938 -27.492188 51.339844 -27.613281 C 51.277344 -27.738281 51.339844 -27.863281 51.460938 -27.863281 Z M 47.074219 -28.914062 C 48.496094 -28.542969 49.113281 -28.480469 49.730469 -28.417969 C 49.980469 -28.417969 50.164062 -28.292969 50.164062 -28.109375 C 50.164062 -27.800781 49.855469 -27.800781 47.136719 -28.355469 C 45.964844 -28.542969 45.035156 -28.851562 45.035156 -28.972656 C 45.035156 -29.222656 45.65625 -29.222656 47.074219 -28.914062 Z M 43.367188 -29.40625 L 44.109375 -29.40625 C 44.171875 -29.40625 44.234375 -29.34375 44.234375 -29.222656 C 44.234375 -28.972656 43.925781 -28.914062 43.308594 -29.160156 C 42.875 -29.40625 42.875 -29.40625 43.367188 -29.40625 Z M 42.007812 -29.59375 C 42.320312 -29.34375 42.503906 -29.160156 42.441406 -29.222656 C 42.378906 -29.222656 41.949219 -29.28125 41.578125 -29.34375 C 41.207031 -29.40625 40.898438 -29.59375 40.898438 -29.714844 C 40.898438 -30.085938 41.515625 -30.023438 42.007812 -29.59375 Z M 39.847656 -30.210938 C 39.972656 -30.210938 40.09375 -30.085938 40.09375 -29.902344 C 40.09375 -29.777344 39.972656 -29.652344 39.847656 -29.652344 C 39.722656 -29.652344 39.601562 -29.777344 39.601562 -29.902344 C 39.601562 -30.085938 39.722656 -30.210938 39.847656 -30.210938 Z M 46.148438 -26.007812 L 47.199219 -25.761719 L 46.023438 -24.710938 C 42.007812 -21.128906 39.847656 -19.027344 39.847656 -18.65625 C 39.847656 -18.472656 39.660156 -18.285156 39.476562 -18.285156 C 39.292969 -18.285156 38.304688 -17.296875 37.253906 -16.0625 C 36.203125 -14.890625 35.335938 -13.898438 35.335938 -13.898438 C 35.152344 -13.898438 34.410156 -16.125 34.289062 -16.988281 C 33.917969 -18.90625 33.667969 -21.5625 33.855469 -21.808594 C 33.976562 -21.929688 34.039062 -22.734375 34.039062 -23.597656 C 34.101562 -26.503906 34.164062 -27.367188 34.347656 -27.304688 C 34.410156 -27.183594 35.460938 -27.058594 36.574219 -26.996094 C 43.121094 -26.441406 45.222656 -26.257812 46.148438 -26.007812 Z M 63.445312 -60.542969 C 63.261719 -60.480469 63.136719 -60.359375 63.136719 -60.171875 C 63.136719 -59.925781 59 -55.105469 56.898438 -52.945312 C 56.28125 -52.328125 54.859375 -50.84375 53.746094 -49.730469 C 50.90625 -46.765625 45.53125 -41.761719 43 -39.722656 C 42.320312 -39.167969 41.886719 -39.105469 42.441406 -39.601562 C 42.628906 -39.785156 44.417969 -41.390625 46.335938 -43.121094 C 50.84375 -47.199219 58.566406 -55.046875 60.914062 -57.949219 C 61.347656 -58.503906 62.027344 -59.308594 62.398438 -59.738281 C 62.765625 -60.109375 63.136719 -60.605469 63.199219 -60.789062 C 63.261719 -60.976562 63.386719 -61.039062 63.570312 -60.914062 C 63.695312 -60.730469 63.632812 -60.605469 63.445312 -60.542969 Z M 67.769531 -73.765625 C 67.585938 -73.207031 67.402344 -72.40625 67.402344 -71.972656 C 67.339844 -71.476562 67.214844 -70.921875 67.03125 -70.675781 C 66.78125 -70.429688 66.597656 -70.058594 66.597656 -69.75 C 66.597656 -69.5 66.414062 -69.070312 66.101562 -68.820312 C 65.917969 -68.574219 65.734375 -68.203125 65.734375 -68.019531 C 65.734375 -67.894531 65.609375 -67.710938 65.425781 -67.710938 C 65.300781 -67.710938 65.238281 -67.585938 65.238281 -67.523438 C 65.363281 -67.152344 62.582031 -63.078125 62.335938 -63.199219 C 62.210938 -63.261719 62.148438 -63.199219 62.273438 -62.953125 C 62.335938 -62.707031 62.210938 -62.519531 61.964844 -62.398438 C 61.777344 -62.335938 61.59375 -62.085938 61.59375 -61.964844 C 61.59375 -61.59375 60.234375 -59.925781 58.566406 -58.257812 C 58.011719 -57.703125 56.835938 -56.402344 55.972656 -55.414062 C 55.046875 -54.367188 53.746094 -53.007812 53.066406 -52.328125 C 52.386719 -51.707031 51.707031 -50.96875 51.460938 -50.71875 C 51.152344 -50.289062 50.660156 -49.855469 47.015625 -46.457031 C 44.789062 -44.480469 39.601562 -39.972656 38.488281 -39.230469 C 38.054688 -38.921875 37.5625 -38.550781 37.5 -38.488281 C 37.4375 -38.425781 36.945312 -37.992188 36.324219 -37.625 C 35.769531 -37.253906 35.214844 -36.945312 35.089844 -36.945312 C 34.96875 -36.945312 34.90625 -37.746094 35.027344 -38.796875 C 35.089844 -39.847656 35.214844 -41.699219 35.335938 -42.875 C 35.398438 -44.109375 35.523438 -45.160156 35.585938 -45.222656 C 35.644531 -45.347656 35.707031 -46.148438 35.832031 -47.015625 C 35.894531 -47.941406 36.140625 -49.050781 36.265625 -49.546875 C 36.386719 -49.980469 36.511719 -50.96875 36.636719 -51.707031 C 36.695312 -52.449219 36.882812 -53.746094 37.003906 -54.488281 C 37.128906 -55.292969 37.5 -57.761719 37.746094 -59.925781 C 38.054688 -62.148438 38.613281 -65.792969 39.042969 -67.957031 C 39.476562 -70.179688 39.847656 -72.527344 39.972656 -73.207031 C 40.03125 -73.886719 40.21875 -74.503906 40.339844 -74.566406 C 40.527344 -74.691406 40.589844 -75.125 40.589844 -75.554688 C 40.589844 -76.050781 40.835938 -77.160156 41.019531 -78.148438 C 41.515625 -79.941406 41.453125 -79.941406 40.652344 -81.425781 C 40.652344 -81.546875 41.019531 -81.734375 41.578125 -81.796875 C 42.070312 -81.917969 43 -82.105469 43.617188 -82.226562 C 50.226562 -83.585938 58.441406 -83.710938 63.015625 -82.535156 C 64.804688 -82.042969 65.238281 -81.796875 64.683594 -81.425781 C 64.433594 -81.300781 64.375 -81.175781 64.433594 -81.175781 C 64.496094 -81.175781 64.746094 -81.117188 65.054688 -81.054688 C 65.300781 -80.992188 65.671875 -81.117188 65.734375 -81.238281 C 65.855469 -81.425781 66.101562 -81.363281 66.472656 -81.054688 C 66.90625 -80.683594 66.96875 -80.496094 66.722656 -80.375 C 66.535156 -80.25 66.289062 -80.25 66.101562 -80.3125 C 65.980469 -80.4375 65.980469 -80.375 66.042969 -80.1875 C 66.226562 -80.003906 66.351562 -79.941406 66.472656 -80.003906 C 66.90625 -80.25 67.585938 -79.324219 67.402344 -78.769531 C 67.339844 -78.519531 67.460938 -78.089844 67.648438 -77.902344 C 68.082031 -77.472656 68.140625 -75.308594 67.769531 -73.765625 Z M 67.769531 -73.765625 "/></g></g></g><g fill="#ffffff" fill-opacity="1"><g transform="translate(141.486427, 356.101114)"><g><path d="M 22.179688 -65.363281 C 24.957031 -74.445312 26.132812 -81.671875 25.515625 -85.6875 C 25.144531 -88.035156 23.847656 -89.765625 21.5625 -90.875 C 19.953125 -91.617188 16.433594 -91.742188 16 -91.0625 C 15.816406 -90.816406 15.320312 -90.691406 14.890625 -90.816406 C 13.777344 -91.125 10.6875 -87.789062 9.144531 -83.648438 C 0.925781 -61.65625 0.308594 -42.9375 0.183594 -37.625 C -0.0625 -28.664062 0.246094 -22.734375 1.113281 -18.535156 C 2.101562 -13.21875 2.902344 -10.8125 3.273438 -11.738281 C 3.398438 -12.109375 3.707031 -11.921875 4.078125 -11.183594 C 4.386719 -10.503906 4.511719 -9.882812 4.386719 -9.574219 C 4.078125 -9.203125 5.3125 -7.847656 6.363281 -7.476562 C 8.527344 -6.609375 9.144531 -7.414062 9.824219 -12.109375 C 10.253906 -15.628906 10.316406 -15.753906 12.542969 -24.589844 C 13.34375 -27.675781 13.898438 -30.332031 13.839844 -30.457031 C 13.714844 -30.519531 13.097656 -29.035156 12.417969 -27.058594 C 11.613281 -25.082031 11.058594 -23.785156 11.058594 -24.03125 C 10.996094 -25.515625 16.617188 -38.734375 18.039062 -40.589844 C 18.410156 -41.019531 17.792969 -39.476562 16.617188 -37.128906 C 15.507812 -34.84375 14.394531 -32.371094 14.269531 -31.816406 C 13.898438 -30.828125 13.898438 -30.765625 14.765625 -31.507812 C 15.257812 -32 15.566406 -32.679688 15.445312 -33.113281 C 15.257812 -33.546875 15.566406 -34.226562 16.0625 -34.78125 C 16.617188 -35.277344 16.988281 -35.957031 16.988281 -36.324219 C 16.988281 -36.636719 17.175781 -36.945312 17.421875 -36.945312 C 17.667969 -36.945312 18.039062 -37.375 18.285156 -37.871094 C 18.65625 -38.796875 18.65625 -38.796875 18.65625 -37.625 C 19.027344 -21.621094 20.261719 -17.855469 25.699219 -15.691406 C 28.664062 -14.519531 31.199219 -15.074219 32.679688 -17.234375 C 33.917969 -19.027344 35.707031 -24.589844 35.335938 -25.578125 C 35.089844 -26.257812 34.84375 -26.132812 33.667969 -24.339844 C 32.929688 -23.167969 31.941406 -21.871094 31.570312 -21.375 C 30.582031 -20.203125 27.863281 -18.226562 27.304688 -18.226562 C 26.070312 -18.226562 24.835938 -23.910156 24.402344 -31.382812 C 24.277344 -34.347656 24.09375 -37.625 24.03125 -38.734375 C 23.96875 -39.847656 23.539062 -41.390625 23.105469 -42.132812 C 22.300781 -43.367188 22.054688 -43.492188 20.511719 -43.492188 C 17.667969 -43.554688 16.0625 -41.515625 15.382812 -40.464844 C 13.652344 -37.625 11.738281 -33.484375 10.378906 -29.59375 C 9.761719 -27.800781 9.019531 -26.257812 8.894531 -26.257812 C 8.648438 -26.257812 8.648438 -26.007812 8.773438 -25.578125 C 8.957031 -25.144531 8.894531 -24.957031 8.585938 -25.144531 C 8.339844 -25.328125 8.03125 -25.144531 7.847656 -24.773438 C 7.722656 -24.402344 7.847656 -24.21875 8.03125 -24.402344 C 8.648438 -24.710938 8.585938 -24.464844 7.785156 -21.808594 C 7.167969 -19.582031 6.546875 -18.65625 6.796875 -20.261719 C 6.917969 -20.632812 6.796875 -21.191406 6.671875 -21.4375 C 6.488281 -21.746094 6.300781 -23.660156 6.300781 -25.761719 L 6.300781 -29.53125 L 9.019531 -35.027344 C 16.558594 -49.980469 18.039062 -51.460938 22.179688 -65.363281 Z M 20.511719 -31.382812 L 20.511719 -35.894531 L 20.820312 -30.953125 C 21.003906 -28.292969 21.3125 -25.265625 21.5625 -24.277344 C 21.929688 -22.609375 21.929688 -21.683594 21.5 -23.042969 C 20.632812 -25.453125 20.386719 -27.554688 20.511719 -31.382812 Z M 11.613281 -30.703125 C 13.21875 -34.78125 15.628906 -39.601562 16.867188 -41.082031 L 17.914062 -42.257812 L 17.113281 -40.773438 C 15.011719 -36.945312 12.171875 -30.023438 10.5625 -25.144531 C 7.90625 -16.867188 7.722656 -16.246094 7.660156 -16.925781 C 7.597656 -17.855469 10.316406 -27.183594 11.613281 -30.703125 Z M 23.414062 -81.488281 C 23.722656 -83.214844 23.722656 -83.339844 23.785156 -82.164062 C 23.785156 -81.363281 23.660156 -79.695312 23.476562 -78.519531 C 23.230469 -76.792969 23.105469 -76.667969 23.105469 -77.902344 C 23.105469 -78.707031 23.230469 -80.3125 23.414062 -81.488281 Z M 22.796875 -74.445312 C 22.179688 -70.304688 20.261719 -64.804688 16.617188 -55.664062 C 14.765625 -51.089844 10.253906 -41.578125 10.195312 -42.132812 C 10.195312 -42.378906 10.5625 -43.183594 10.996094 -44.109375 C 14.578125 -51.152344 18.410156 -59.738281 21.4375 -70.242188 C 22.300781 -73.394531 22.921875 -75.246094 22.796875 -74.445312 Z M 20.695312 -89.332031 C 20.820312 -89.457031 21.191406 -88.777344 21.5625 -87.910156 C 22.425781 -85.8125 22.117188 -85.5625 21.191406 -87.539062 C 20.820312 -88.40625 20.574219 -89.207031 20.695312 -89.332031 Z M 6.363281 -37.253906 L 6.546875 -40.589844 C 7.289062 -52.078125 9.453125 -73.949219 18.164062 -88.777344 C 18.65625 -89.640625 19.335938 -89.394531 19.832031 -88.960938 C 20.695312 -88.28125 21.4375 -85.8125 21.25 -84.082031 C 21.191406 -83.277344 21.25 -82.476562 21.4375 -82.289062 C 21.621094 -82.164062 21.746094 -82.785156 21.808594 -83.710938 C 21.808594 -85.070312 21.871094 -85.191406 22.179688 -84.390625 C 22.425781 -83.832031 22.363281 -82.414062 22.117188 -80.808594 C 21.871094 -79.261719 21.621094 -77.53125 21.5625 -76.792969 C 21.25 -73.949219 20.757812 -71.476562 20.386719 -71.230469 C 20.203125 -71.109375 20.140625 -70.859375 20.261719 -70.675781 C 20.632812 -70.117188 18.347656 -62.890625 17.359375 -61.53125 C 16.867188 -60.851562 16.742188 -60.417969 16.988281 -60.605469 C 17.359375 -60.851562 17.484375 -60.605469 17.234375 -59.738281 C 16.679688 -57.394531 15.320312 -55.722656 12.910156 -50.472656 C 11.613281 -47.632812 9.574219 -43.492188 8.464844 -41.269531 Z M 8.527344 -38.859375 C 8.527344 -39.105469 8.773438 -39.785156 9.144531 -40.339844 C 9.453125 -40.960938 9.699219 -41.207031 9.699219 -41.019531 C 9.699219 -40.710938 9.453125 -40.09375 9.144531 -39.476562 C 8.773438 -38.921875 8.527344 -38.613281 8.527344 -38.859375 Z M 8.527344 -38.859375 "/></g></g></g><g fill="#ffffff" fill-opacity="1"><g transform="translate(173.73348, 356.101114)"><g><path d="M 20.632812 -43.738281 C 20.757812 -44.109375 20.203125 -44.296875 20.015625 -43.863281 C 19.769531 -43.617188 18.90625 -43.675781 18.90625 -43.988281 C 18.90625 -44.605469 18.285156 -44.046875 17.234375 -42.441406 C 15.199219 -39.351562 14.457031 -38.179688 14.457031 -37.933594 C 14.457031 -37.625 14.578125 -37.5625 12.664062 -38.550781 C 11.183594 -39.292969 10.8125 -39.414062 9.390625 -39.476562 C 8.03125 -39.476562 7.597656 -39.476562 6.859375 -39.105469 C 5.375 -38.363281 5.066406 -38.179688 5.066406 -38.054688 C 5.066406 -37.933594 4.878906 -37.871094 4.632812 -37.871094 C 4.324219 -37.871094 4.261719 -37.808594 4.324219 -37.5625 C 4.386719 -37.375 4.324219 -37.128906 4.078125 -36.945312 C 2.71875 -35.769531 0.742188 -30.085938 0 -25.207031 C -0.496094 -21.871094 -0.617188 -18.285156 -0.183594 -17.234375 C 0.496094 -15.382812 0.863281 -14.828125 1.171875 -14.828125 C 1.421875 -14.828125 1.667969 -14.519531 1.914062 -14.210938 C 2.101562 -13.839844 2.347656 -13.652344 2.472656 -13.714844 C 2.59375 -13.777344 2.902344 -13.652344 3.210938 -13.46875 C 3.769531 -13.097656 5.4375 -12.910156 5.4375 -13.21875 C 5.4375 -13.34375 5.683594 -13.652344 5.992188 -14.023438 C 6.917969 -15.011719 7.042969 -15.199219 7.042969 -15.445312 C 7.042969 -15.628906 7.476562 -16.433594 8.585938 -18.285156 C 9.203125 -19.335938 10.503906 -22.054688 10.996094 -23.351562 C 11.242188 -24.09375 11.550781 -24.835938 11.675781 -24.957031 C 11.738281 -25.082031 12.046875 -25.761719 12.292969 -26.441406 C 12.480469 -27.183594 12.789062 -27.863281 12.910156 -27.984375 C 13.035156 -28.171875 13.097656 -28.355469 12.972656 -28.542969 C 12.972656 -28.664062 13.035156 -28.851562 13.21875 -28.914062 C 13.34375 -28.972656 13.46875 -29.160156 13.46875 -29.28125 C 13.46875 -29.46875 13.652344 -29.902344 13.898438 -30.394531 C 14.148438 -30.828125 14.332031 -31.199219 14.332031 -31.199219 C 14.210938 -31.445312 14.332031 -31.628906 14.828125 -31.753906 C 15.816406 -32 16.0625 -32.433594 16.0625 -33.667969 C 16.0625 -34.84375 16.1875 -35.214844 16.925781 -36.449219 L 17.296875 -37.191406 L 17.175781 -35.957031 C 16.558594 -29.222656 16.246094 -20.820312 16.558594 -18.59375 C 16.617188 -18.164062 16.804688 -17.113281 16.925781 -16.433594 C 17.296875 -13.839844 18.164062 -11.984375 18.90625 -11.984375 C 19.152344 -11.984375 19.398438 -11.800781 19.523438 -11.492188 C 19.707031 -11.121094 19.832031 -11.058594 20.078125 -11.242188 C 20.261719 -11.429688 20.449219 -11.367188 20.882812 -11.058594 C 21.191406 -10.8125 21.5 -10.6875 21.621094 -10.8125 C 21.683594 -10.933594 22.054688 -10.996094 22.363281 -10.996094 C 23.105469 -10.996094 23.230469 -11.429688 22.734375 -12.851562 C 21.621094 -16.308594 21.621094 -16.371094 21.683594 -24.339844 C 21.683594 -28.417969 21.683594 -32.125 21.746094 -32.558594 C 21.746094 -32.988281 21.871094 -35.027344 22.054688 -37.066406 C 22.242188 -39.601562 22.300781 -41.019531 22.179688 -41.453125 C 22.054688 -41.886719 22.054688 -42.441406 22.117188 -42.75 C 22.300781 -43.429688 21.992188 -43.617188 21.128906 -43.429688 C 20.632812 -43.367188 20.574219 -43.367188 20.632812 -43.738281 Z M 5.375 -20.324219 C 5.003906 -19.894531 5.003906 -19.832031 5.4375 -22.921875 C 5.929688 -26.625 7.042969 -30.273438 8.527344 -33.296875 C 10.007812 -36.203125 10.195312 -36.449219 10.5625 -36.078125 C 10.6875 -35.894531 11.058594 -35.214844 11.367188 -34.535156 L 11.863281 -33.238281 L 8.773438 -26.996094 C 7.105469 -23.539062 5.558594 -20.574219 5.375 -20.324219 Z M 12.171875 -30.828125 C 12.046875 -30.703125 11.863281 -30.394531 11.800781 -30.148438 C 11.738281 -29.902344 11.492188 -29.46875 11.242188 -29.222656 C 11.058594 -28.972656 10.875 -28.664062 10.875 -28.480469 C 10.875 -28.292969 10.625 -27.800781 10.378906 -27.367188 C 10.070312 -26.9375 9.882812 -26.316406 9.882812 -26.070312 C 9.882812 -25.886719 9.761719 -25.636719 9.636719 -25.636719 C 9.574219 -25.636719 9.390625 -25.390625 9.328125 -25.082031 C 9.265625 -24.773438 9.082031 -24.402344 8.957031 -24.21875 C 8.835938 -24.09375 8.585938 -23.597656 8.464844 -23.230469 C 8.339844 -22.859375 7.90625 -22.179688 7.535156 -21.746094 C 6.859375 -21.003906 6.859375 -20.941406 7.105469 -21.5 C 7.226562 -21.871094 7.414062 -22.179688 7.535156 -22.300781 C 7.660156 -22.363281 7.660156 -22.425781 7.535156 -22.425781 C 7.476562 -22.425781 7.535156 -22.550781 7.785156 -22.734375 C 7.96875 -22.921875 8.03125 -22.980469 7.90625 -22.921875 C 7.785156 -22.859375 7.660156 -22.859375 7.660156 -22.921875 C 7.660156 -23.105469 9.265625 -26.625 10.625 -29.34375 C 11.675781 -31.628906 12.046875 -32.125 12.355469 -32.125 C 12.726562 -32 12.664062 -31.445312 12.171875 -30.828125 Z M 16.558594 -39.042969 C 16.496094 -38.859375 16.371094 -38.671875 16.246094 -38.671875 C 16.1875 -38.671875 16.0625 -38.550781 16.0625 -38.363281 C 16.0625 -38.242188 16 -38.054688 15.878906 -38.054688 C 15.816406 -38.054688 15.566406 -37.746094 15.382812 -37.375 C 15.074219 -36.574219 15.011719 -36.511719 14.828125 -37.003906 C 14.703125 -37.316406 16.125 -40.03125 16.988281 -41.144531 C 17.234375 -41.453125 17.546875 -41.886719 17.605469 -42.070312 C 17.667969 -42.320312 17.792969 -42.503906 17.914062 -42.503906 C 18.164062 -42.503906 17.914062 -41.269531 17.484375 -40.652344 C 16.867188 -39.722656 16.679688 -39.351562 16.558594 -39.042969 Z M 18.472656 -35.460938 C 18.410156 -34.84375 18.164062 -31.628906 17.976562 -28.234375 C 17.605469 -20.941406 17.484375 -19.894531 17.667969 -25.207031 C 17.667969 -27.367188 17.730469 -29.28125 17.730469 -29.46875 C 17.730469 -30.828125 18.65625 -38.921875 18.84375 -39.042969 C 18.964844 -39.230469 18.71875 -37.066406 18.472656 -35.460938 Z M 18.472656 -35.460938 "/></g></g></g><g fill="#ffffff" fill-opacity="1"><g transform="translate(200.606045, 356.101114)"><g><path d="M 3.210938 -10.070312 C 4.199219 -9.265625 6.363281 -8.214844 8.277344 -7.660156 C 10.316406 -7.042969 10.75 -7.042969 10.933594 -7.351562 C 10.996094 -7.476562 11.550781 -7.785156 12.109375 -8.09375 C 13.097656 -8.648438 14.890625 -10.503906 15.320312 -11.304688 C 15.382812 -11.492188 15.566406 -11.800781 15.753906 -11.863281 C 15.878906 -11.984375 16 -12.171875 16 -12.355469 C 16 -12.601562 16.125 -12.972656 16.308594 -13.21875 C 16.558594 -13.53125 16.679688 -13.839844 16.679688 -13.898438 C 16.679688 -13.960938 17.050781 -14.765625 17.484375 -15.691406 C 18.347656 -17.484375 18.535156 -18.039062 17.976562 -17.546875 C 17.605469 -17.175781 17.667969 -17.359375 18.164062 -18.65625 C 18.410156 -19.273438 18.59375 -19.953125 18.59375 -20.203125 C 18.535156 -20.449219 18.59375 -20.632812 18.71875 -20.632812 C 18.90625 -20.632812 19.582031 -21.871094 19.398438 -21.992188 C 19.335938 -22.054688 19.460938 -22.425781 19.644531 -22.859375 C 19.832031 -23.289062 19.953125 -23.722656 19.953125 -23.96875 C 19.953125 -24.15625 20.078125 -24.710938 20.324219 -25.144531 C 20.511719 -25.636719 20.941406 -26.8125 21.25 -27.800781 C 21.5625 -28.789062 22.054688 -30.023438 22.300781 -30.582031 C 22.796875 -31.691406 22.859375 -32 22.488281 -32.125 C 22.363281 -32.1875 22.363281 -32.371094 22.425781 -32.867188 C 22.550781 -33.421875 22.671875 -33.609375 23.042969 -33.667969 C 23.476562 -33.730469 23.597656 -33.976562 23.910156 -34.90625 C 25.082031 -38.671875 25.515625 -40.15625 25.390625 -40.21875 C 25.265625 -40.339844 25.265625 -40.402344 24.773438 -39.105469 C 24.527344 -38.550781 24.277344 -38.179688 24.21875 -38.304688 C 24.21875 -38.488281 24.277344 -38.859375 24.464844 -39.167969 C 24.589844 -39.539062 24.710938 -39.972656 24.710938 -40.21875 C 24.710938 -40.402344 24.898438 -40.773438 25.144531 -41.019531 C 25.699219 -41.515625 25.761719 -41.699219 25.328125 -41.699219 C 25.144531 -41.640625 25.019531 -41.761719 25.019531 -41.949219 C 25.019531 -42.070312 25.144531 -42.195312 25.328125 -42.195312 C 25.515625 -42.195312 25.699219 -42.320312 25.699219 -42.503906 C 25.761719 -42.628906 25.761719 -42.6875 25.578125 -42.628906 C 25.328125 -42.441406 25.265625 -42.6875 25.453125 -43.183594 C 25.515625 -43.429688 25.636719 -43.429688 25.761719 -43.308594 C 25.824219 -43.183594 25.945312 -43.429688 26.070312 -43.800781 C 26.132812 -44.234375 26.132812 -44.542969 26.070312 -44.542969 C 25.945312 -44.542969 25.886719 -44.667969 25.824219 -44.789062 C 25.824219 -44.976562 25.945312 -45.097656 26.132812 -45.160156 C 26.378906 -45.160156 26.441406 -45.285156 26.75 -48.003906 C 26.875 -48.929688 27.058594 -50.101562 27.183594 -50.597656 C 27.367188 -51.398438 27.367188 -51.585938 27.121094 -51.957031 C 26.9375 -52.203125 26.8125 -52.449219 26.875 -52.511719 C 26.9375 -52.574219 26.8125 -52.820312 26.625 -53.066406 C 26.378906 -53.253906 26.070312 -53.625 25.886719 -53.871094 C 25.636719 -54.179688 25.515625 -54.179688 25.265625 -53.933594 C 25.082031 -53.746094 24.957031 -53.746094 24.957031 -53.808594 C 25.019531 -54.304688 24.898438 -54.425781 24.339844 -54.425781 C 23.96875 -54.367188 23.476562 -54.550781 23.289062 -54.734375 L 22.796875 -55.105469 L 22.980469 -54.488281 C 23.539062 -53.007812 23.230469 -50.164062 21.992188 -45.285156 C 21.683594 -44.234375 21.3125 -42.75 21.191406 -41.949219 C 20.941406 -41.144531 20.574219 -39.910156 20.324219 -39.167969 C 20.015625 -38.363281 19.707031 -37.253906 19.582031 -36.574219 C 19.460938 -35.894531 19.152344 -34.90625 18.90625 -34.347656 C 18.71875 -33.792969 18.472656 -33.113281 18.410156 -32.804688 C 18.347656 -32.496094 18.164062 -32.125 17.976562 -31.941406 C 17.855469 -31.753906 17.792969 -31.507812 17.792969 -31.445312 C 17.914062 -31.320312 17.855469 -31.011719 17.730469 -30.703125 C 17.605469 -30.332031 17.175781 -29.222656 16.804688 -28.171875 C 16.496094 -27.058594 16.0625 -25.945312 15.9375 -25.578125 C 14.890625 -22.734375 14.765625 -22.425781 14.640625 -22.609375 C 14.394531 -22.980469 14.023438 -22.054688 14.148438 -21.5625 C 14.269531 -21.3125 14.269531 -21.191406 14.085938 -21.191406 C 13.898438 -21.25 13.777344 -21.066406 13.777344 -20.820312 C 13.714844 -20.632812 13.589844 -20.261719 13.40625 -20.078125 C 13.160156 -19.769531 13.160156 -19.707031 13.40625 -19.707031 C 13.589844 -19.707031 13.53125 -19.644531 13.28125 -19.398438 C 13.097656 -19.214844 12.910156 -18.964844 12.910156 -18.78125 C 12.851562 -18.59375 12.726562 -18.285156 12.601562 -18.101562 C 12.417969 -17.914062 11.984375 -16.925781 11.550781 -15.9375 C 10.996094 -14.640625 10.503906 -13.777344 9.515625 -12.664062 C 8.835938 -11.863281 8.15625 -11.183594 8.03125 -11.183594 C 7.597656 -11.183594 7.351562 -11.800781 6.917969 -14.457031 C 6.300781 -18.285156 6.117188 -24.402344 6.488281 -31.507812 C 6.546875 -32.558594 6.546875 -33.917969 6.546875 -34.535156 C 6.488281 -35.214844 6.488281 -36.015625 6.609375 -36.449219 C 6.671875 -36.820312 6.796875 -37.683594 6.796875 -38.363281 C 6.796875 -38.984375 6.859375 -40.15625 6.859375 -40.835938 C 6.980469 -42.007812 6.917969 -42.070312 6.546875 -42.070312 C 6.300781 -42.007812 6.054688 -42.132812 5.992188 -42.195312 C 5.929688 -42.320312 5.4375 -42.566406 4.941406 -42.8125 C 4.015625 -43.183594 4.015625 -43.183594 3.398438 -42.75 C 2.78125 -42.378906 2.78125 -42.378906 2.53125 -42.75 C 2.285156 -43.121094 2.101562 -43.183594 1.730469 -43 C 1.484375 -42.875 1.234375 -42.8125 1.113281 -42.875 C 0.925781 -43.121094 0.742188 -42.566406 0.804688 -41.640625 C 0.804688 -41.207031 0.804688 -40.773438 0.679688 -40.835938 C 0.496094 -40.960938 0.496094 -40.835938 0.742188 -40.28125 C 0.863281 -39.972656 0.925781 -39.414062 0.863281 -38.921875 C 0.804688 -38.425781 0.742188 -37.191406 0.679688 -36.203125 C 0.679688 -35.214844 0.679688 -33.484375 0.617188 -32.371094 C 0.433594 -28.109375 0.496094 -25.945312 0.742188 -20.820312 C 1.171875 -13.714844 1.730469 -11.304688 3.210938 -10.070312 Z M 22.980469 -34.410156 C 22.921875 -34.347656 22.796875 -34.347656 22.796875 -34.472656 C 22.796875 -34.597656 22.921875 -34.71875 22.980469 -34.71875 C 23.105469 -34.71875 23.167969 -34.65625 23.167969 -34.597656 C 23.167969 -34.597656 23.105469 -34.472656 22.980469 -34.410156 Z M 23.351562 -35.152344 C 23.289062 -35.152344 23.167969 -35.214844 23.167969 -35.335938 C 23.167969 -35.398438 23.230469 -35.523438 23.351562 -35.523438 C 23.476562 -35.523438 23.539062 -35.460938 23.539062 -35.335938 C 23.539062 -35.277344 23.476562 -35.152344 23.351562 -35.152344 Z M 24.09375 -37.191406 C 24.09375 -36.945312 24.03125 -36.757812 23.96875 -36.757812 C 23.910156 -36.757812 23.847656 -36.945312 23.847656 -37.191406 C 23.847656 -37.375 23.910156 -37.5625 24.03125 -37.5625 C 24.09375 -37.5625 24.15625 -37.4375 24.09375 -37.191406 Z M 17.050781 -26.316406 C 17.605469 -27.800781 18.039062 -29.59375 17.792969 -29.59375 C 17.484375 -29.59375 17.792969 -29.902344 18.101562 -29.902344 C 18.226562 -29.902344 18.285156 -30.085938 18.285156 -30.273438 C 18.226562 -30.457031 18.410156 -30.953125 18.65625 -31.382812 C 18.90625 -31.816406 19.089844 -32.308594 19.027344 -32.433594 C 18.964844 -32.558594 18.964844 -32.742188 19.089844 -32.804688 C 19.214844 -32.867188 19.273438 -33.113281 19.273438 -33.359375 C 19.214844 -33.609375 19.335938 -33.976562 19.523438 -34.164062 C 19.644531 -34.410156 19.707031 -34.78125 19.644531 -35.152344 C 19.523438 -35.644531 19.523438 -35.707031 19.832031 -35.644531 C 20.140625 -35.523438 20.203125 -35.585938 20.078125 -36.078125 C 19.894531 -36.636719 19.953125 -36.820312 20.511719 -37.316406 C 21.066406 -37.808594 21.066406 -37.871094 20.695312 -38.117188 C 20.386719 -38.363281 20.386719 -38.363281 20.632812 -38.921875 C 20.757812 -39.292969 20.882812 -39.414062 20.941406 -39.292969 C 20.941406 -39.167969 21.003906 -39.042969 21.128906 -39.042969 C 21.25 -39.042969 21.3125 -39.167969 21.191406 -39.292969 C 21.128906 -39.476562 21.25 -39.785156 21.4375 -40.03125 C 21.621094 -40.28125 21.746094 -40.527344 21.746094 -40.652344 C 21.746094 -40.710938 21.808594 -41.082031 21.929688 -41.453125 C 22.242188 -42.257812 22.242188 -42.320312 21.808594 -42.320312 C 21.621094 -42.320312 21.5625 -42.320312 21.683594 -42.378906 C 21.808594 -42.503906 21.929688 -42.6875 21.929688 -42.9375 C 21.929688 -43.121094 22.054688 -43.367188 22.242188 -43.429688 C 22.425781 -43.492188 22.488281 -43.738281 22.425781 -43.925781 C 22.363281 -44.171875 22.488281 -44.355469 22.734375 -44.417969 C 22.980469 -44.542969 23.042969 -44.667969 22.921875 -44.667969 C 22.609375 -44.789062 22.550781 -45.347656 22.859375 -45.347656 C 22.921875 -45.347656 22.980469 -45.53125 22.859375 -45.714844 C 22.796875 -45.902344 22.921875 -46.335938 23.167969 -46.644531 L 23.539062 -47.136719 L 23.042969 -47.015625 C 22.671875 -46.890625 22.671875 -46.890625 22.921875 -47.261719 C 23.042969 -47.507812 23.351562 -47.816406 23.476562 -47.941406 C 23.660156 -48.0625 23.847656 -48.804688 23.96875 -49.730469 C 24.09375 -50.597656 24.21875 -51.277344 24.339844 -51.277344 C 24.402344 -51.277344 24.464844 -51.398438 24.464844 -51.648438 C 24.464844 -51.832031 24.527344 -51.894531 24.648438 -51.769531 C 25.082031 -51.398438 24.15625 -46.335938 23.539062 -45.46875 C 23.476562 -45.285156 23.476562 -45.097656 23.476562 -45.035156 C 23.660156 -44.851562 23.042969 -42.441406 22.796875 -42.007812 C 22.734375 -41.949219 22.609375 -41.578125 22.609375 -41.207031 C 22.550781 -40.835938 22.300781 -40.09375 22.054688 -39.476562 C 21.808594 -38.859375 21.4375 -37.746094 21.3125 -37.003906 C 21.128906 -36.265625 20.449219 -34.226562 19.832031 -32.308594 C 18.285156 -27.863281 16.742188 -24.277344 16.742188 -24.898438 C 16.679688 -25.207031 16.867188 -25.824219 17.050781 -26.316406 Z M 6.300781 -12.726562 C 6.300781 -12.601562 6.238281 -12.480469 6.117188 -12.480469 C 5.867188 -12.480469 5.867188 -12.601562 6.117188 -12.789062 C 6.238281 -12.851562 6.300781 -12.851562 6.300781 -12.726562 Z M 5.992188 -14.148438 C 5.992188 -14.023438 6.054688 -13.714844 5.992188 -13.53125 C 5.929688 -13.34375 5.929688 -13.46875 5.929688 -13.777344 C 5.867188 -14.085938 5.929688 -14.269531 5.992188 -14.148438 Z M 2.472656 -30.085938 C 2.53125 -30.023438 2.53125 -29.839844 2.472656 -29.714844 C 2.472656 -29.59375 2.410156 -29.59375 2.410156 -29.839844 C 2.347656 -30.085938 2.410156 -30.148438 2.472656 -30.085938 Z M 2.472656 -28.234375 C 2.53125 -28.542969 2.59375 -28.417969 2.53125 -27.863281 C 2.472656 -27.429688 2.472656 -26.996094 2.410156 -26.996094 C 2.222656 -26.8125 2.285156 -27.863281 2.472656 -28.234375 Z M 1.851562 -16.496094 C 1.359375 -19.582031 1.234375 -27.863281 1.605469 -33.050781 C 1.667969 -33.792969 1.730469 -34.597656 1.667969 -34.71875 C 1.667969 -34.84375 1.792969 -34.96875 1.914062 -34.96875 C 2.039062 -34.96875 2.101562 -34.71875 2.039062 -34.410156 C 1.914062 -33.792969 1.914062 -31.816406 1.914062 -28.417969 C 1.914062 -27.121094 1.914062 -25.945312 1.851562 -25.886719 C 1.667969 -25.578125 1.976562 -18.410156 2.285156 -16 C 2.84375 -11.921875 2.59375 -12.171875 1.851562 -16.496094 Z M 2.71875 -18.90625 C 2.65625 -18.71875 2.59375 -18.78125 2.59375 -18.964844 C 2.53125 -19.214844 2.59375 -19.335938 2.65625 -19.273438 C 2.71875 -19.214844 2.78125 -19.027344 2.71875 -18.90625 Z M 22.300781 -42.6875 C 22.363281 -42.8125 22.300781 -43 22.242188 -43.058594 C 22.179688 -43.121094 22.117188 -43 22.179688 -42.75 C 22.179688 -42.566406 22.242188 -42.503906 22.300781 -42.6875 Z M 22.300781 -42.6875 "/></g></g></g><g fill="#ffffff" fill-opacity="1"><g transform="translate(229.94963, 356.101114)"><g><path d="M 19.523438 -36.078125 C 19.582031 -36.203125 19.644531 -36.324219 19.582031 -36.324219 C 19.523438 -36.386719 19.398438 -37.003906 19.273438 -37.683594 C 18.964844 -39.910156 17.792969 -41.886719 16.246094 -43 C 15.445312 -43.492188 14.269531 -43.863281 13.53125 -43.800781 C 12.601562 -43.675781 11.304688 -43.800781 11.058594 -43.925781 C 10.625 -44.296875 9.824219 -43.738281 7.90625 -41.886719 C 3.890625 -37.808594 0.246094 -30.210938 -0.371094 -24.464844 C -0.617188 -22.671875 -0.496094 -19.953125 -0.246094 -19.089844 C -0.0625 -18.65625 -0.0625 -18.226562 -0.183594 -18.039062 C 0.308594 -17.296875 0.496094 -16.308594 0.742188 -15.445312 C 1.234375 -15.011719 1.730469 -14.457031 1.851562 -14.269531 C 2.84375 -13.035156 5.4375 -11.242188 6.546875 -11.058594 C 6.859375 -10.996094 7.476562 -10.875 7.90625 -10.8125 C 8.339844 -10.6875 8.835938 -10.5625 9.082031 -10.5625 C 9.328125 -10.503906 9.636719 -10.441406 9.699219 -10.441406 C 9.824219 -10.441406 10.503906 -10.5625 11.304688 -10.6875 C 12.417969 -10.875 12.910156 -11.121094 14.269531 -11.984375 C 15.199219 -12.601562 16.246094 -13.40625 16.679688 -13.777344 C 17.976562 -15.074219 20.386719 -18.410156 20.449219 -18.964844 C 20.511719 -19.214844 20.574219 -19.398438 20.632812 -19.523438 C 20.882812 -19.707031 21.3125 -20.820312 21.3125 -21.191406 C 21.3125 -21.375 21.5 -21.621094 21.683594 -21.746094 C 22.054688 -21.992188 22.054688 -22.117188 21.871094 -22.425781 C 21.746094 -22.671875 21.746094 -22.859375 21.808594 -22.859375 C 21.992188 -22.859375 22.242188 -23.351562 22.179688 -23.597656 C 22.179688 -23.660156 22.363281 -23.96875 22.609375 -24.339844 C 23.230469 -25.144531 23.660156 -25.824219 25.328125 -29.222656 C 26.132812 -30.765625 26.8125 -32.25 26.8125 -32.433594 C 26.875 -32.558594 26.9375 -32.742188 27.058594 -32.988281 C 26.503906 -33.238281 26.070312 -33.609375 25.761719 -34.101562 C 25.699219 -33.976562 25.578125 -33.792969 25.515625 -33.667969 C 25.082031 -32.742188 23.414062 -29.902344 22.300781 -28.171875 C 21.683594 -27.246094 20.941406 -26.070312 20.695312 -25.578125 C 19.152344 -22.980469 17.484375 -20.574219 16.988281 -19.953125 C 16.617188 -19.582031 16.433594 -19.460938 16.558594 -19.644531 C 16.679688 -19.894531 16.679688 -20.078125 16.617188 -20.140625 C 16.558594 -20.203125 16.617188 -20.261719 16.742188 -20.261719 C 16.867188 -20.261719 16.925781 -20.449219 16.925781 -20.632812 C 16.925781 -20.820312 17.050781 -21.128906 17.234375 -21.25 C 17.359375 -21.4375 17.484375 -21.621094 17.484375 -21.683594 C 17.484375 -21.808594 17.546875 -21.992188 17.730469 -22.117188 C 17.914062 -22.425781 18.964844 -24.21875 18.964844 -24.402344 C 18.964844 -24.464844 18.84375 -24.464844 18.71875 -24.464844 C 18.59375 -24.464844 18.285156 -24.15625 18.039062 -23.785156 C 17.792969 -23.351562 17.484375 -23.042969 17.421875 -23.042969 C 17.359375 -23.042969 17.296875 -22.921875 17.296875 -22.796875 C 17.296875 -22.671875 16.988281 -22.117188 16.679688 -21.621094 C 16.308594 -21.066406 16 -20.632812 16 -20.574219 C 16 -20.511719 15.878906 -20.324219 15.816406 -20.203125 C 15.628906 -20.078125 15.257812 -19.582031 14.949219 -19.152344 C 13.839844 -17.855469 11.800781 -15.691406 11.613281 -15.691406 C 11.492188 -15.691406 11.183594 -15.566406 10.933594 -15.382812 C 10.070312 -14.765625 9.082031 -14.269531 8.957031 -14.332031 C 8.835938 -14.394531 8.402344 -14.332031 7.90625 -14.148438 C 6.546875 -13.714844 6.179688 -13.777344 5.929688 -14.457031 C 5.5 -15.507812 5.4375 -15.878906 5.621094 -15.878906 C 5.992188 -15.878906 8.894531 -18.65625 8.894531 -19.027344 C 8.894531 -19.152344 9.019531 -19.152344 9.082031 -19.089844 C 9.203125 -19.027344 9.265625 -19.027344 9.265625 -19.152344 C 9.265625 -19.335938 10.441406 -20.574219 10.75 -20.695312 C 10.875 -20.695312 11.183594 -21.066406 11.367188 -21.5 C 11.550781 -21.871094 11.863281 -22.179688 11.984375 -22.179688 C 12.171875 -22.179688 12.292969 -22.363281 12.355469 -22.550781 C 12.355469 -22.734375 12.480469 -23.042969 12.664062 -23.167969 C 12.789062 -23.351562 12.910156 -23.660156 13.035156 -23.847656 C 13.097656 -24.277344 14.148438 -25.390625 14.269531 -25.265625 C 14.269531 -25.265625 14.332031 -25.390625 14.332031 -25.578125 C 14.332031 -25.824219 14.394531 -26.007812 14.519531 -26.132812 C 15.011719 -26.441406 17.359375 -30.148438 18.101562 -31.816406 C 18.164062 -32.125 18.410156 -32.308594 18.535156 -32.308594 C 18.71875 -32.308594 18.78125 -32.496094 18.71875 -32.742188 C 18.65625 -32.988281 18.71875 -33.238281 18.78125 -33.238281 C 18.90625 -33.238281 18.964844 -33.359375 18.84375 -33.484375 C 18.84375 -33.667969 18.84375 -33.792969 18.90625 -33.730469 C 19.273438 -33.730469 19.335938 -33.792969 19.152344 -34.039062 C 18.964844 -34.226562 18.964844 -34.347656 19.027344 -34.289062 C 19.398438 -34.226562 19.582031 -34.347656 19.273438 -34.535156 C 19.089844 -34.65625 19.089844 -34.71875 19.335938 -34.90625 C 19.769531 -35.089844 19.769531 -35.460938 19.398438 -35.277344 C 19.214844 -35.214844 19.152344 -35.277344 19.214844 -35.523438 C 19.273438 -35.707031 19.398438 -35.957031 19.523438 -36.078125 Z M 24.464844 -29.777344 C 24.710938 -30.085938 24.710938 -30.085938 24.648438 -29.839844 C 24.277344 -29.28125 24.03125 -28.914062 24.03125 -29.097656 C 24.03125 -29.222656 24.21875 -29.53125 24.464844 -29.777344 Z M 21.3125 -24.464844 C 21.621094 -24.957031 21.871094 -25.453125 21.871094 -25.515625 C 21.871094 -25.515625 22.242188 -26.132812 22.734375 -26.875 C 23.167969 -27.613281 23.476562 -28.046875 23.414062 -27.863281 C 23.351562 -27.675781 23.289062 -27.492188 23.289062 -27.429688 C 23.289062 -27.367188 23.167969 -27.121094 22.980469 -26.9375 C 22.796875 -26.6875 22.425781 -26.070312 22.117188 -25.453125 C 21.808594 -24.898438 21.375 -24.15625 21.191406 -23.910156 C 20.757812 -23.539062 20.820312 -23.597656 21.3125 -24.464844 Z M 20.324219 -22.734375 C 20.449219 -22.921875 20.574219 -23.042969 20.574219 -22.921875 C 20.574219 -22.796875 20.449219 -22.550781 20.324219 -22.363281 C 20.140625 -22.179688 20.015625 -22.117188 20.015625 -22.179688 C 20.015625 -22.300781 20.140625 -22.550781 20.324219 -22.734375 Z M 9.824219 -23.105469 C 9.699219 -22.980469 9.515625 -22.796875 9.515625 -22.796875 C 9.453125 -22.796875 9.515625 -22.980469 9.636719 -23.105469 C 9.761719 -23.230469 9.882812 -23.351562 9.945312 -23.351562 C 10.007812 -23.351562 9.945312 -23.230469 9.824219 -23.105469 Z M 14.148438 -35.335938 C 13.839844 -34.289062 13.53125 -33.421875 13.40625 -33.238281 C 13.160156 -32.929688 12.171875 -31.199219 12.046875 -30.828125 C 11.984375 -30.640625 11.921875 -30.457031 11.800781 -30.457031 C 11.613281 -30.457031 10.6875 -29.035156 10.6875 -28.664062 C 10.6875 -28.480469 10.5625 -28.355469 10.503906 -28.417969 C 10.316406 -28.542969 9.761719 -27.800781 9.945312 -27.554688 C 10.007812 -27.429688 10.007812 -27.367188 9.882812 -27.429688 C 9.824219 -27.492188 9.699219 -27.429688 9.574219 -27.367188 C 9.203125 -26.996094 9.082031 -26.503906 9.328125 -26.441406 C 9.453125 -26.378906 9.390625 -26.316406 9.144531 -26.316406 C 8.648438 -26.316406 8.402344 -25.945312 8.710938 -25.761719 C 8.835938 -25.699219 8.773438 -25.578125 8.464844 -25.515625 C 8.214844 -25.453125 7.847656 -25.144531 7.597656 -24.773438 C 7.351562 -24.464844 6.980469 -24.03125 6.734375 -23.785156 C 6.425781 -23.539062 6.363281 -23.414062 6.488281 -23.414062 C 6.734375 -23.414062 6.734375 -23.351562 6.546875 -23.105469 C 6.425781 -22.980469 6.238281 -22.859375 6.179688 -22.921875 C 6.117188 -22.980469 5.867188 -22.734375 5.746094 -22.363281 C 5.558594 -22.054688 5.375 -21.683594 5.25 -21.621094 C 5.003906 -21.5 5.003906 -22.609375 5.375 -23.722656 C 5.5 -24.277344 5.746094 -25.328125 5.929688 -26.070312 C 6.054688 -26.875 6.425781 -27.984375 6.671875 -28.542969 C 6.980469 -29.160156 7.535156 -30.394531 7.96875 -31.199219 C 8.339844 -32.0625 8.835938 -33.175781 9.082031 -33.609375 C 9.882812 -35.398438 10.875 -36.695312 12.789062 -38.613281 C 14.640625 -40.464844 14.765625 -40.527344 14.890625 -40.09375 C 15.011719 -39.292969 14.765625 -37.253906 14.148438 -35.335938 Z M 14.148438 -35.335938 "/></g></g></g><g fill="#ffffff" fill-opacity="1"><g transform="translate(253.60984, 356.101114)"><g><path d="M -1.730469 -4.695312 C -1.542969 -4.386719 -1.421875 -3.953125 -1.421875 -3.707031 C -1.421875 -3.460938 -1.359375 -3.210938 -1.234375 -3.089844 C -1.171875 -3.027344 -0.988281 -2.59375 -0.863281 -2.222656 C -0.308594 -0.863281 1.050781 0.742188 2.285156 1.359375 C 2.59375 1.542969 3.519531 1.851562 4.261719 2.101562 C 5.929688 2.65625 6.300781 2.65625 7.90625 2.347656 C 9.945312 1.914062 11.675781 0.988281 13.160156 -0.554688 C 15.199219 -2.59375 17.421875 -5.25 17.421875 -5.746094 C 17.421875 -5.929688 17.546875 -5.992188 17.667969 -5.992188 C 17.730469 -5.992188 17.792969 -6.117188 17.792969 -6.238281 C 17.730469 -6.425781 17.914062 -6.734375 18.164062 -6.917969 C 18.410156 -7.167969 18.65625 -7.535156 18.71875 -7.785156 C 18.78125 -8.03125 18.84375 -8.339844 18.964844 -8.464844 C 19.027344 -8.585938 18.964844 -8.710938 18.78125 -8.835938 C 18.59375 -9.019531 18.59375 -9.019531 18.84375 -9.019531 C 19.089844 -9.019531 19.214844 -9.082031 19.273438 -9.144531 C 19.273438 -9.265625 19.273438 -9.515625 19.335938 -9.699219 C 19.398438 -9.945312 19.523438 -10.6875 19.707031 -11.429688 C 20.078125 -12.601562 20.015625 -13.714844 19.523438 -15.566406 C 19.152344 -17.113281 16.988281 -19.582031 13.777344 -22.179688 C 12.851562 -22.921875 11.921875 -23.722656 11.675781 -23.96875 C 11.492188 -24.21875 11.058594 -24.589844 10.75 -24.835938 L 10.195312 -25.265625 L 10.75 -26.316406 C 11.367188 -27.492188 11.800781 -28.046875 12.542969 -28.789062 C 12.726562 -28.972656 13.097656 -29.53125 13.28125 -29.960938 C 13.46875 -30.332031 13.714844 -30.703125 13.898438 -30.703125 C 14.085938 -30.703125 14.210938 -30.765625 14.210938 -30.890625 C 14.210938 -31.011719 14.332031 -31.074219 14.519531 -31.074219 C 14.703125 -31.074219 14.828125 -31.199219 14.703125 -31.445312 C 14.640625 -31.628906 14.765625 -32 14.949219 -32.1875 C 15.136719 -32.433594 15.816406 -33.113281 16.371094 -33.792969 C 18.535156 -36.140625 21.929688 -38.734375 22.300781 -38.242188 C 22.363281 -38.117188 22.425781 -38.117188 22.425781 -38.179688 C 22.425781 -38.304688 22.734375 -38.054688 23.042969 -37.746094 C 23.597656 -37.128906 24.03125 -37.003906 23.722656 -37.5625 C 23.539062 -37.871094 23.476562 -38.734375 23.660156 -38.734375 C 23.785156 -38.734375 23.847656 -38.613281 23.847656 -38.488281 C 23.847656 -38.179688 24.402344 -38.304688 24.527344 -38.734375 C 24.589844 -38.984375 24.835938 -39.105469 25.144531 -39.105469 C 25.515625 -39.105469 25.453125 -39.230469 24.710938 -39.847656 C 24.277344 -40.21875 23.785156 -40.527344 23.660156 -40.527344 C 23.539062 -40.527344 23.167969 -40.710938 22.859375 -40.960938 C 22.425781 -41.269531 22.179688 -41.332031 21.4375 -41.207031 C 19.894531 -40.960938 17.421875 -39.601562 15.628906 -37.933594 C 15.136719 -37.4375 14.578125 -37.003906 14.394531 -36.882812 C 14.085938 -36.636719 12.851562 -35.214844 8.894531 -30.519531 C 8.15625 -29.652344 7.535156 -28.851562 7.476562 -28.851562 C 7.476562 -28.851562 7.167969 -29.46875 6.859375 -30.148438 C 5.621094 -32.742188 5.25 -36.265625 5.929688 -39.785156 C 6.300781 -41.640625 6.609375 -42.6875 7.722656 -45.59375 C 8.402344 -47.382812 9.328125 -48.3125 11.367188 -49.363281 C 12.480469 -49.917969 13.652344 -50.472656 14.148438 -50.597656 C 15.199219 -50.84375 15.257812 -51.277344 14.457031 -52.019531 C 13.53125 -52.820312 11.984375 -53.746094 11.242188 -53.871094 C 10.070312 -54.117188 7.785156 -53.808594 7.289062 -53.378906 C 6.671875 -52.820312 6.054688 -52.574219 5.746094 -52.699219 C 5.128906 -52.882812 3.953125 -51.089844 2.84375 -48.3125 C 1.296875 -44.355469 0.863281 -42.566406 0.863281 -39.414062 C 0.863281 -36.882812 0.925781 -36.324219 1.730469 -33.792969 C 2.347656 -31.691406 4.261719 -28.292969 5.683594 -26.875 C 6.179688 -26.257812 6.300781 -25.886719 5.992188 -25.578125 C 5.929688 -25.453125 5.558594 -24.898438 5.25 -24.277344 C 4.878906 -23.660156 4.386719 -22.734375 4.140625 -22.242188 C 3.832031 -21.808594 3.398438 -20.820312 3.089844 -20.078125 C 2.78125 -19.398438 2.285156 -18.347656 1.976562 -17.667969 C 1.667969 -17.050781 1.359375 -16.125 1.171875 -15.628906 C 0.988281 -15.136719 0.863281 -14.640625 0.742188 -14.519531 C 0.679688 -14.457031 0.433594 -13.652344 0.183594 -12.851562 C -0.0625 -11.984375 -0.371094 -11.183594 -0.496094 -11.058594 C -0.617188 -10.875 -0.742188 -10.6875 -0.742188 -10.5625 C -0.742188 -9.945312 -1.113281 -8.464844 -1.234375 -8.277344 C -1.359375 -8.15625 -1.421875 -7.96875 -1.421875 -7.90625 C -1.421875 -7.722656 -1.484375 -7.414062 -1.851562 -6.488281 C -2.101562 -5.808594 -2.101562 -5.375 -1.730469 -4.695312 Z M 1.050781 -10.6875 C 0.988281 -10.253906 0.742188 -9.328125 0.554688 -8.710938 C 0.183594 -7.535156 0.183594 -7.535156 0.246094 -8.402344 C 0.308594 -8.894531 0.433594 -9.390625 0.496094 -9.515625 C 0.617188 -9.636719 0.742188 -10.132812 0.925781 -10.625 L 1.113281 -11.550781 Z M 8.339844 -0.183594 C 7.96875 -0.0625 7.597656 0.125 7.535156 0.183594 C 7.476562 0.183594 7.414062 0.183594 7.414062 0.125 C 7.414062 0.0625 8.710938 -0.804688 8.894531 -0.804688 C 9.203125 -0.804688 8.894531 -0.433594 8.339844 -0.183594 Z M 9.824219 -1.296875 C 9.699219 -1.234375 9.574219 -1.296875 9.574219 -1.421875 C 9.574219 -1.542969 9.699219 -1.605469 9.824219 -1.605469 C 9.882812 -1.605469 10.007812 -1.542969 10.007812 -1.542969 C 10.007812 -1.484375 9.882812 -1.359375 9.824219 -1.296875 Z M 11.984375 -2.472656 C 11.863281 -2.347656 11.675781 -2.222656 11.675781 -2.222656 C 11.613281 -2.222656 11.675781 -2.347656 11.800781 -2.472656 C 11.921875 -2.65625 12.109375 -2.78125 12.171875 -2.78125 C 12.171875 -2.78125 12.109375 -2.65625 11.984375 -2.472656 Z M 13.839844 -4.632812 C 13.589844 -4.324219 13.34375 -4.015625 13.28125 -4.015625 C 13.097656 -4.015625 13.589844 -4.757812 13.898438 -5.003906 C 14.210938 -5.25 14.148438 -5.128906 13.839844 -4.632812 Z M 14.578125 -5.808594 C 14.457031 -5.621094 14.332031 -5.4375 14.269531 -5.4375 C 14.210938 -5.4375 14.269531 -5.621094 14.394531 -5.808594 C 14.519531 -6.054688 14.640625 -6.179688 14.703125 -6.179688 C 14.765625 -6.179688 14.703125 -6.054688 14.578125 -5.808594 Z M 16.1875 -9.636719 C 16.308594 -9.636719 16.433594 -9.515625 16.433594 -9.390625 C 16.433594 -9.328125 16.308594 -9.203125 16.1875 -9.203125 C 16.125 -9.203125 16 -9.328125 16 -9.390625 C 16 -9.515625 16.125 -9.636719 16.1875 -9.636719 Z M 16 -8.585938 C 16 -8.464844 15.878906 -8.03125 15.691406 -7.660156 C 15.507812 -7.289062 15.320312 -6.980469 15.257812 -6.980469 C 15.136719 -6.980469 15.199219 -7.167969 15.628906 -8.09375 C 15.816406 -8.527344 16 -8.773438 16 -8.585938 Z M 10.996094 -28.605469 C 10.875 -28.542969 10.8125 -28.542969 10.8125 -28.664062 C 10.8125 -28.789062 10.875 -28.851562 10.996094 -28.851562 C 11.121094 -28.851562 11.183594 -28.851562 11.183594 -28.789062 C 11.183594 -28.726562 11.121094 -28.664062 10.996094 -28.605469 Z M 13.652344 -32 C 13.160156 -31.445312 12.601562 -30.953125 12.480469 -30.953125 C 12.417969 -30.890625 12.726562 -31.261719 13.28125 -31.816406 C 13.777344 -32.371094 14.210938 -32.929688 14.210938 -33.050781 C 14.210938 -33.175781 14.332031 -33.296875 14.394531 -33.296875 C 14.765625 -33.296875 14.640625 -33.050781 13.652344 -32 Z M 9.453125 -29.777344 C 9.636719 -29.902344 9.824219 -30.148438 9.824219 -30.210938 C 9.824219 -30.332031 9.945312 -30.582031 10.132812 -30.828125 C 10.316406 -31.011719 10.75 -31.570312 11.121094 -32 C 11.429688 -32.433594 11.800781 -32.929688 11.921875 -33.050781 C 11.984375 -33.238281 12.355469 -33.667969 12.726562 -34.039062 C 13.097656 -34.410156 13.53125 -34.90625 13.652344 -35.214844 C 13.839844 -35.460938 14.085938 -35.707031 14.210938 -35.707031 C 14.457031 -35.707031 15.011719 -36.203125 15.011719 -36.449219 C 15.011719 -36.574219 16.0625 -37.683594 16.246094 -37.683594 C 16.371094 -37.683594 17.113281 -38.304688 17.667969 -38.859375 C 17.792969 -38.984375 18.101562 -39.042969 18.285156 -39.042969 C 18.65625 -39.042969 18.65625 -38.984375 18.226562 -38.671875 C 17.976562 -38.488281 17.605469 -38.179688 17.421875 -38.117188 C 17.113281 -37.933594 17.113281 -37.933594 17.421875 -37.683594 C 17.667969 -37.5 17.667969 -37.5 17.359375 -37.5625 C 16.988281 -37.683594 15.507812 -36.574219 15.691406 -36.324219 C 15.753906 -36.324219 16 -36.386719 16.1875 -36.574219 C 17.050781 -37.375 16.617188 -36.695312 15.566406 -35.707031 C 14.394531 -34.597656 13.960938 -34.347656 15.011719 -35.398438 C 15.382812 -35.769531 15.566406 -36.078125 15.445312 -36.078125 C 15.199219 -36.078125 12.355469 -33.050781 12.542969 -32.929688 C 12.601562 -32.867188 12.972656 -33.175781 13.34375 -33.667969 C 13.714844 -34.101562 14.148438 -34.472656 14.269531 -34.472656 C 14.394531 -34.472656 14.210938 -34.289062 13.898438 -33.917969 C 13.46875 -33.421875 11.121094 -30.519531 10.316406 -29.46875 C 10.132812 -29.222656 9.882812 -28.789062 9.699219 -28.605469 C 9.515625 -28.355469 9.390625 -28.292969 9.390625 -28.355469 C 9.390625 -28.480469 9.824219 -29.097656 10.316406 -29.777344 C 11.800781 -31.691406 11.367188 -31.753906 9.824219 -29.777344 C 9.574219 -29.46875 9.328125 -29.28125 9.265625 -29.40625 C 9.144531 -29.46875 9.265625 -29.652344 9.453125 -29.777344 Z M 8.957031 -23.476562 L 11.304688 -21.5 C 12.601562 -20.386719 14.023438 -19.152344 14.457031 -18.71875 C 15.257812 -17.914062 15.816406 -16.496094 15.816406 -15.320312 C 15.816406 -13.097656 14.394531 -9.265625 12.726562 -7.167969 C 12.355469 -6.609375 11.984375 -6.117188 11.984375 -5.992188 C 11.984375 -5.929688 11.800781 -5.808594 11.613281 -5.808594 C 11.367188 -5.808594 11.183594 -5.683594 11.183594 -5.5 C 11.183594 -5.066406 8.585938 -2.285156 8.277344 -2.347656 C 8.09375 -2.347656 8.03125 -2.285156 8.09375 -2.222656 C 8.15625 -2.101562 7.785156 -1.792969 7.226562 -1.484375 C 6.179688 -0.804688 4.386719 -0.125 4.386719 -0.371094 C 4.386719 -0.496094 4.511719 -0.617188 4.632812 -0.679688 C 4.757812 -0.742188 4.386719 -0.804688 3.832031 -0.804688 C 2.53125 -0.804688 2.285156 -1.171875 2.285156 -2.78125 C 2.347656 -7.660156 3.398438 -12.046875 6.054688 -17.730469 C 6.425781 -18.535156 6.980469 -19.769531 7.351562 -20.449219 C 7.660156 -21.191406 8.15625 -22.179688 8.464844 -22.609375 Z M 3.089844 -13.898438 C 3.769531 -16.125 5.867188 -20.574219 6.363281 -20.757812 C 6.609375 -20.882812 6.609375 -20.882812 6.363281 -20.511719 C 6.117188 -20.324219 5.992188 -20.078125 5.992188 -19.953125 C 5.992188 -19.832031 5.621094 -19.089844 5.25 -18.226562 C 4.820312 -17.421875 4.199219 -16 3.832031 -15.011719 C 3.027344 -13.160156 2.65625 -12.480469 3.089844 -13.898438 Z M 7.96875 -24.15625 C 8.09375 -24.21875 8.214844 -24.21875 8.214844 -24.09375 C 8.214844 -23.96875 8.09375 -23.847656 7.96875 -23.847656 C 7.722656 -23.847656 7.722656 -24.03125 7.96875 -24.15625 Z M 7.289062 -22.363281 C 6.609375 -21.191406 6.609375 -21.128906 6.609375 -21.5625 C 6.609375 -21.746094 6.859375 -22.300781 7.167969 -22.859375 C 7.90625 -23.96875 7.96875 -23.660156 7.289062 -22.363281 Z M 6.734375 -23.539062 C 6.488281 -23.289062 6.363281 -22.980469 4.941406 -20.203125 C 3.644531 -17.667969 1.914062 -13.53125 1.667969 -12.480469 C 1.542969 -11.921875 1.171875 -11.367188 1.171875 -11.675781 C 1.171875 -11.863281 2.347656 -15.320312 2.65625 -15.9375 C 4.199219 -19.398438 6.425781 -23.785156 6.859375 -24.21875 C 7.105469 -24.464844 6.980469 -23.785156 6.734375 -23.539062 Z M 1.542969 -15.136719 C 1.667969 -15.382812 1.976562 -16.125 2.222656 -16.867188 C 3.027344 -18.84375 6.054688 -24.835938 6.609375 -25.390625 C 6.671875 -25.453125 6.859375 -25.515625 6.917969 -25.453125 C 6.980469 -25.390625 6.546875 -24.527344 5.992188 -23.597656 C 5.4375 -22.609375 5.003906 -21.808594 5.003906 -21.683594 C 5.003906 -21.621094 4.757812 -21.191406 4.511719 -20.882812 C 4.261719 -20.449219 3.707031 -19.335938 3.273438 -18.347656 C 2.84375 -17.359375 2.472656 -16.433594 2.347656 -16.246094 C 2.285156 -16.0625 2.039062 -15.507812 1.851562 -15.011719 C 1.667969 -14.457031 1.421875 -14.023438 1.359375 -14.023438 C 1.171875 -14.023438 1.234375 -14.394531 1.542969 -15.136719 Z M 0.496094 -11.921875 C 1.050781 -13.839844 1.113281 -13.960938 1.296875 -13.777344 C 1.359375 -13.714844 1.171875 -13.035156 0.988281 -12.292969 C 0.742188 -11.550781 0.371094 -10.316406 0.183594 -9.636719 C 0 -8.894531 -0.183594 -8.464844 -0.308594 -8.527344 C -0.433594 -8.773438 -0.308594 -9.265625 0.496094 -11.921875 Z M 0.496094 -11.921875 "/></g></g></g><g fill="#ffffff" fill-opacity="1"><g transform="translate(277.022931, 356.101114)"><g><path d="M 22.179688 -65.363281 C 24.957031 -74.445312 26.132812 -81.671875 25.515625 -85.6875 C 25.144531 -88.035156 23.847656 -89.765625 21.5625 -90.875 C 19.953125 -91.617188 16.433594 -91.742188 16 -91.0625 C 15.816406 -90.816406 15.320312 -90.691406 14.890625 -90.816406 C 13.777344 -91.125 10.6875 -87.789062 9.144531 -83.648438 C 0.925781 -61.65625 0.308594 -42.9375 0.183594 -37.625 C -0.0625 -28.664062 0.246094 -22.734375 1.113281 -18.535156 C 2.101562 -13.21875 2.902344 -10.8125 3.273438 -11.738281 C 3.398438 -12.109375 3.707031 -11.921875 4.078125 -11.183594 C 4.386719 -10.503906 4.511719 -9.882812 4.386719 -9.574219 C 4.078125 -9.203125 5.3125 -7.847656 6.363281 -7.476562 C 8.527344 -6.609375 9.144531 -7.414062 9.824219 -12.109375 C 10.253906 -15.628906 10.316406 -15.753906 12.542969 -24.589844 C 13.34375 -27.675781 13.898438 -30.332031 13.839844 -30.457031 C 13.714844 -30.519531 13.097656 -29.035156 12.417969 -27.058594 C 11.613281 -25.082031 11.058594 -23.785156 11.058594 -24.03125 C 10.996094 -25.515625 16.617188 -38.734375 18.039062 -40.589844 C 18.410156 -41.019531 17.792969 -39.476562 16.617188 -37.128906 C 15.507812 -34.84375 14.394531 -32.371094 14.269531 -31.816406 C 13.898438 -30.828125 13.898438 -30.765625 14.765625 -31.507812 C 15.257812 -32 15.566406 -32.679688 15.445312 -33.113281 C 15.257812 -33.546875 15.566406 -34.226562 16.0625 -34.78125 C 16.617188 -35.277344 16.988281 -35.957031 16.988281 -36.324219 C 16.988281 -36.636719 17.175781 -36.945312 17.421875 -36.945312 C 17.667969 -36.945312 18.039062 -37.375 18.285156 -37.871094 C 18.65625 -38.796875 18.65625 -38.796875 18.65625 -37.625 C 19.027344 -21.621094 20.261719 -17.855469 25.699219 -15.691406 C 28.664062 -14.519531 31.199219 -15.074219 32.679688 -17.234375 C 33.917969 -19.027344 35.707031 -24.589844 35.335938 -25.578125 C 35.089844 -26.257812 34.84375 -26.132812 33.667969 -24.339844 C 32.929688 -23.167969 31.941406 -21.871094 31.570312 -21.375 C 30.582031 -20.203125 27.863281 -18.226562 27.304688 -18.226562 C 26.070312 -18.226562 24.835938 -23.910156 24.402344 -31.382812 C 24.277344 -34.347656 24.09375 -37.625 24.03125 -38.734375 C 23.96875 -39.847656 23.539062 -41.390625 23.105469 -42.132812 C 22.300781 -43.367188 22.054688 -43.492188 20.511719 -43.492188 C 17.667969 -43.554688 16.0625 -41.515625 15.382812 -40.464844 C 13.652344 -37.625 11.738281 -33.484375 10.378906 -29.59375 C 9.761719 -27.800781 9.019531 -26.257812 8.894531 -26.257812 C 8.648438 -26.257812 8.648438 -26.007812 8.773438 -25.578125 C 8.957031 -25.144531 8.894531 -24.957031 8.585938 -25.144531 C 8.339844 -25.328125 8.03125 -25.144531 7.847656 -24.773438 C 7.722656 -24.402344 7.847656 -24.21875 8.03125 -24.402344 C 8.648438 -24.710938 8.585938 -24.464844 7.785156 -21.808594 C 7.167969 -19.582031 6.546875 -18.65625 6.796875 -20.261719 C 6.917969 -20.632812 6.796875 -21.191406 6.671875 -21.4375 C 6.488281 -21.746094 6.300781 -23.660156 6.300781 -25.761719 L 6.300781 -29.53125 L 9.019531 -35.027344 C 16.558594 -49.980469 18.039062 -51.460938 22.179688 -65.363281 Z M 20.511719 -31.382812 L 20.511719 -35.894531 L 20.820312 -30.953125 C 21.003906 -28.292969 21.3125 -25.265625 21.5625 -24.277344 C 21.929688 -22.609375 21.929688 -21.683594 21.5 -23.042969 C 20.632812 -25.453125 20.386719 -27.554688 20.511719 -31.382812 Z M 11.613281 -30.703125 C 13.21875 -34.78125 15.628906 -39.601562 16.867188 -41.082031 L 17.914062 -42.257812 L 17.113281 -40.773438 C 15.011719 -36.945312 12.171875 -30.023438 10.5625 -25.144531 C 7.90625 -16.867188 7.722656 -16.246094 7.660156 -16.925781 C 7.597656 -17.855469 10.316406 -27.183594 11.613281 -30.703125 Z M 23.414062 -81.488281 C 23.722656 -83.214844 23.722656 -83.339844 23.785156 -82.164062 C 23.785156 -81.363281 23.660156 -79.695312 23.476562 -78.519531 C 23.230469 -76.792969 23.105469 -76.667969 23.105469 -77.902344 C 23.105469 -78.707031 23.230469 -80.3125 23.414062 -81.488281 Z M 22.796875 -74.445312 C 22.179688 -70.304688 20.261719 -64.804688 16.617188 -55.664062 C 14.765625 -51.089844 10.253906 -41.578125 10.195312 -42.132812 C 10.195312 -42.378906 10.5625 -43.183594 10.996094 -44.109375 C 14.578125 -51.152344 18.410156 -59.738281 21.4375 -70.242188 C 22.300781 -73.394531 22.921875 -75.246094 22.796875 -74.445312 Z M 20.695312 -89.332031 C 20.820312 -89.457031 21.191406 -88.777344 21.5625 -87.910156 C 22.425781 -85.8125 22.117188 -85.5625 21.191406 -87.539062 C 20.820312 -88.40625 20.574219 -89.207031 20.695312 -89.332031 Z M 6.363281 -37.253906 L 6.546875 -40.589844 C 7.289062 -52.078125 9.453125 -73.949219 18.164062 -88.777344 C 18.65625 -89.640625 19.335938 -89.394531 19.832031 -88.960938 C 20.695312 -88.28125 21.4375 -85.8125 21.25 -84.082031 C 21.191406 -83.277344 21.25 -82.476562 21.4375 -82.289062 C 21.621094 -82.164062 21.746094 -82.785156 21.808594 -83.710938 C 21.808594 -85.070312 21.871094 -85.191406 22.179688 -84.390625 C 22.425781 -83.832031 22.363281 -82.414062 22.117188 -80.808594 C 21.871094 -79.261719 21.621094 -77.53125 21.5625 -76.792969 C 21.25 -73.949219 20.757812 -71.476562 20.386719 -71.230469 C 20.203125 -71.109375 20.140625 -70.859375 20.261719 -70.675781 C 20.632812 -70.117188 18.347656 -62.890625 17.359375 -61.53125 C 16.867188 -60.851562 16.742188 -60.417969 16.988281 -60.605469 C 17.359375 -60.851562 17.484375 -60.605469 17.234375 -59.738281 C 16.679688 -57.394531 15.320312 -55.722656 12.910156 -50.472656 C 11.613281 -47.632812 9.574219 -43.492188 8.464844 -41.269531 Z M 8.527344 -38.859375 C 8.527344 -39.105469 8.773438 -39.785156 9.144531 -40.339844 C 9.453125 -40.960938 9.699219 -41.207031 9.699219 -41.019531 C 9.699219 -40.710938 9.453125 -40.09375 9.144531 -39.476562 C 8.773438 -38.921875 8.527344 -38.613281 8.527344 -38.859375 Z M 8.527344 -38.859375 "/></g></g></g></svg>